<?xml version="1.0" encoding="utf-8"?>
<!-- Generator: Adobe Illustrator 16.0.0, SVG Export Plug-In . SVG Version: 6.00 Build 0)  -->
<!DOCTYPE svg PUBLIC "-//W3C//DTD SVG 1.1//EN" "http://www.w3.org/Graphics/SVG/1.1/DTD/svg11.dtd">
<svg version="1.1" id="Layer_1" xmlns="http://www.w3.org/2000/svg" xmlns:xlink="http://www.w3.org/1999/xlink" x="0px" y="0px"
	 width="288px" height="176.5px" viewBox="0 0 288 176.5" enable-background="new 0 0 288 176.5" xml:space="preserve">
<circle fill="#C92750" cx="-572.795" cy="-112.374" r="10.708"/>
<rect x="-743.545" y="-235.831" fill="#C92750" width="21.5" height="21.5"/>
<rect x="-1109.667" y="-388.167" fill="none" width="90.999" height="27.833"/>
<text transform="matrix(1 0 0 1 -1109.6665 -379.6465)" font-family="'MyriadPro-Regular'" font-size="12">id code</text>
<rect x="-1109.667" y="-304.833" fill="none" width="90.999" height="27.833"/>
<text transform="matrix(1 0 0 1 -1109.6665 -296.9614)" font-family="'PrestigeEliteStd-Bd'" font-size="12">id code</text>
<g>
	<rect x="-887.667" y="-304.833" fill="none" width="60.833" height="15.5"/>
	<text transform="matrix(1 0 0 1 -887.6665 -296.9614)" font-family="'PrestigeEliteStd-Bd'" font-size="12">id code</text>
	<rect x="-887.667" y="-304.833" fill="none" width="60.833" height="15.5"/>
	<text transform="matrix(1 0 0 1 -887.6665 -296.9614)" font-family="'PrestigeEliteStd-Bd'" font-size="12">id code</text>
	<rect x="-887.667" y="-304.833" fill="none" width="60.833" height="15.5"/>
	<text transform="matrix(1 0 0 1 -887.6665 -296.9614)" font-family="'PrestigeEliteStd-Bd'" font-size="12">id code</text>
	<rect x="-887.667" y="-304.833" fill="none" width="60.833" height="15.5"/>
	<text transform="matrix(1 0 0 1 -887.6665 -296.9614)" font-family="'PrestigeEliteStd-Bd'" font-size="12">id code</text>
</g>
<g>
	<rect x="-887.667" y="-280.5" fill="none" width="60.833" height="15.5"/>
	<text transform="matrix(1 0 0 1 -887.6665 -271.6562)" font-family="'OCRAStd'" font-size="12">id code</text>
	<rect x="-887.667" y="-280.5" fill="none" width="60.833" height="15.5"/>
	<text transform="matrix(1 0 0 1 -887.6665 -271.6562)" font-family="'OCRAStd'" font-size="12">id code</text>
	<rect x="-887.667" y="-280.5" fill="none" width="60.833" height="15.5"/>
	<text transform="matrix(1 0 0 1 -887.6665 -271.6562)" font-family="'OCRAStd'" font-size="12">id code</text>
	<rect x="-887.667" y="-280.5" fill="none" width="60.833" height="15.5"/>
	<text transform="matrix(1 0 0 1 -887.6665 -271.6562)" font-family="'OCRAStd'" font-size="12">id code</text>
</g>
<g>
	<rect x="-887.667" y="-235.834" fill="none" width="60.833" height="15.5"/>
	<text transform="matrix(1 0 0 1 -887.6665 -227.4341)" font-family="'PTMono-Regular'" font-size="12">id code</text>
	<rect x="-887.667" y="-235.834" fill="none" width="60.833" height="15.5"/>
	<text transform="matrix(1 0 0 1 -887.6665 -227.4341)" font-family="'PTMono-Regular'" font-size="12">id code</text>
	<rect x="-887.667" y="-235.834" fill="none" width="60.833" height="15.5"/>
	<text transform="matrix(1 0 0 1 -887.6665 -227.4341)" font-family="'PTMono-Regular'" font-size="12">id code</text>
	<rect x="-887.667" y="-235.834" fill="none" width="60.833" height="15.5"/>
	<text transform="matrix(1 0 0 1 -887.6665 -227.4341)" font-family="'PTMono-Regular'" font-size="12">id code</text>
</g>
<g>
	<rect x="-887.667" y="-197.5" fill="none" width="38.146" height="25.125"/>
	<text transform="matrix(1 0 0 1 -886.5933 -189.1001)"><tspan x="0" y="0" font-family="'PTMono-Regular'" font-size="12">&lt;id/&gt;</tspan><tspan x="3.6" y="14.4" font-family="'PTMono-Regular'" font-size="12">code</tspan></text>
	<rect x="-887.667" y="-197.5" fill="none" width="38.146" height="25.125"/>
	<text transform="matrix(1 0 0 1 -886.5933 -189.1001)"><tspan x="0" y="0" font-family="'PTMono-Regular'" font-size="12">&lt;id/&gt;</tspan><tspan x="3.6" y="14.4" font-family="'PTMono-Regular'" font-size="12">code</tspan></text>
	<rect x="-887.667" y="-197.5" fill="none" width="38.146" height="25.125"/>
	<text transform="matrix(1 0 0 1 -886.5933 -189.1001)"><tspan x="0" y="0" font-family="'PTMono-Regular'" font-size="12">&lt;id/&gt;</tspan><tspan x="3.6" y="14.4" font-family="'PTMono-Regular'" font-size="12">code</tspan></text>
	<rect x="-887.667" y="-197.5" fill="none" width="38.146" height="25.125"/>
	<text transform="matrix(1 0 0 1 -886.5933 -189.1001)"><tspan x="0" y="0" font-family="'PTMono-Regular'" font-size="12">&lt;id/&gt;</tspan><tspan x="3.6" y="14.4" font-family="'PTMono-Regular'" font-size="12">code</tspan></text>
</g>
<g>
	<rect x="-837.917" y="-197.5" fill="none" width="44.417" height="32.125"/>
	<text transform="matrix(1 0 0 1 -833.7109 -189.2324)"><tspan x="0" y="0" font-family="'AndaleMono'" font-size="12">&lt;id/&gt;</tspan><tspan x="3.601" y="14.4" font-family="'AndaleMono'" font-size="12">code</tspan></text>
	<rect x="-837.917" y="-197.5" fill="none" width="44.417" height="32.125"/>
	<text transform="matrix(1 0 0 1 -833.7109 -189.2324)"><tspan x="0" y="0" font-family="'AndaleMono'" font-size="12">&lt;id/&gt;</tspan><tspan x="3.601" y="14.4" font-family="'AndaleMono'" font-size="12">code</tspan></text>
	<rect x="-837.917" y="-197.5" fill="none" width="44.417" height="32.125"/>
	<text transform="matrix(1 0 0 1 -833.7109 -189.2324)"><tspan x="0" y="0" font-family="'AndaleMono'" font-size="12">&lt;id/&gt;</tspan><tspan x="3.601" y="14.4" font-family="'AndaleMono'" font-size="12">code</tspan></text>
	<rect x="-837.917" y="-197.5" fill="none" width="44.417" height="32.125"/>
	<text transform="matrix(1 0 0 1 -833.7109 -189.2324)"><tspan x="0" y="0" font-family="'AndaleMono'" font-size="12">&lt;id/&gt;</tspan><tspan x="3.601" y="14.4" font-family="'AndaleMono'" font-size="12">code</tspan></text>
</g>
<g>
	<rect x="-837.917" y="-156.25" fill="none" width="44.417" height="32.125"/>
	<text transform="matrix(1 0 0 1 -837.3076 -147.4062)"><tspan x="0" y="0" font-family="'OCRAStd'" font-size="12">&lt;id/&gt;</tspan><tspan x="4.32" y="14.4" font-family="'OCRAStd'" font-size="12">code</tspan></text>
	<rect x="-837.917" y="-156.25" fill="none" width="44.417" height="32.125"/>
	<text transform="matrix(1 0 0 1 -837.3076 -147.4062)"><tspan x="0" y="0" font-family="'OCRAStd'" font-size="12">&lt;id/&gt;</tspan><tspan x="4.32" y="14.4" font-family="'OCRAStd'" font-size="12">code</tspan></text>
	<rect x="-837.917" y="-156.25" fill="none" width="44.417" height="32.125"/>
	<text transform="matrix(1 0 0 1 -837.3076 -147.4062)"><tspan x="0" y="0" font-family="'OCRAStd'" font-size="12">&lt;id/&gt;</tspan><tspan x="4.32" y="14.4" font-family="'OCRAStd'" font-size="12">code</tspan></text>
	<rect x="-837.917" y="-156.25" fill="none" width="44.417" height="32.125"/>
	<text transform="matrix(1 0 0 1 -837.3076 -147.4062)"><tspan x="0" y="0" font-family="'OCRAStd'" font-size="12">&lt;id/&gt;</tspan><tspan x="4.32" y="14.4" font-family="'OCRAStd'" font-size="12">code</tspan></text>
</g>
<rect x="-1109.667" y="-238.167" fill="none" width="90.999" height="27.833"/>
<text transform="matrix(1 0 0 1 -1109.6665 -230.2949)" font-family="'PrestigeEliteStd-Bd'" font-size="12">id code</text>
<g>
	<g>
		<path d="M-735.749-260.808h0.863c0.384,0,0.792,0.084,0.792,0.576c0,0.504-0.456,0.576-0.792,0.576h-2.927
			c-0.336,0-0.791-0.072-0.791-0.576c0-0.492,0.408-0.576,0.791-0.576h0.912v-4.162h-0.912c-0.336,0-0.791-0.072-0.791-0.576
			c0-0.492,0.408-0.576,0.791-0.576h1.212c0.659,0,0.852,0.12,0.852,0.803V-260.808z M-737.488-268.447
			c0-0.408,0.229-0.54,0.539-0.54h0.66c0.312,0,0.54,0.132,0.54,0.54v0.552c0,0.408-0.228,0.54-0.54,0.54h-0.66
			c-0.311,0-0.539-0.132-0.539-0.54V-268.447z"/>
		<path d="M-727.373-266.121c0.396,0,0.719,0.216,1.139,0.636l0.192,0.204v-2.422c0-0.396,0.084-0.792,0.575-0.792
			c0.492,0,0.576,0.396,0.576,0.792v7.244c0,0.396-0.084,0.804-0.576,0.804c-0.455,0-0.575-0.384-0.575-0.768v-0.072l-0.252,0.251
			c-0.36,0.336-0.756,0.588-1.104,0.588h-1.115c-0.384,0-0.815-0.264-0.983-0.408l-0.396-0.336c-0.479-0.408-0.635-0.72-0.635-1.331
			v-2.315c0-0.612,0.156-0.923,0.635-1.331l0.396-0.336c0.359-0.312,0.623-0.408,1.104-0.408H-727.373z M-729.377-262.187
			c0,0.324,0,0.732,0.181,0.875l0.348,0.276c0.144,0.12,0.288,0.228,0.432,0.228h0.815c0.145,0,0.348-0.096,0.564-0.288l0.659-0.563
			c0.168-0.144,0.336-0.288,0.336-0.504v-1.451c0-0.216-0.168-0.359-0.336-0.503l-0.659-0.564c-0.217-0.192-0.42-0.288-0.564-0.288
			h-0.815c-0.144,0-0.288,0.108-0.432,0.228l-0.348,0.275c-0.181,0.144-0.181,0.552-0.181,0.876V-262.187z"/>
		<path d="M-713.248-263.446c0-0.708,0.132-1.055,0.684-1.511l0.852-0.708c0.539-0.444,0.815-0.456,1.486-0.456h1.824
			c0.383,0,0.791,0.084,0.791,0.576c0,0.503-0.456,0.576-0.791,0.576h-2.027c-0.229,0-0.456,0.12-0.66,0.288l-0.695,0.588
			c-0.18,0.144-0.312,0.264-0.312,0.492v1.427c0,0.228,0.133,0.348,0.312,0.492l0.695,0.587c0.204,0.168,0.432,0.288,0.66,0.288
			h2.027c0.335,0,0.791,0.072,0.791,0.576c0,0.492-0.408,0.576-0.791,0.576h-1.824c-0.671,0-0.947-0.012-1.486-0.456l-0.852-0.708
			c-0.552-0.456-0.684-0.803-0.684-1.511V-263.446z"/>
		<path d="M-704.609-263.974c0-0.768,0.156-1.032,0.732-1.5c0.563-0.468,0.827-0.647,1.631-0.647h0.912
			c0.803,0,1.066,0.18,1.631,0.647c0.575,0.468,0.731,0.732,0.731,1.5v2.17c0,0.756-0.192,1.043-0.792,1.547s-0.84,0.6-1.57,0.6
			h-0.912c-0.731,0-0.971-0.096-1.571-0.6c-0.6-0.504-0.792-0.792-0.792-1.547V-263.974z M-703.457-261.803
			c0,0.24,0.084,0.396,0.42,0.684c0.252,0.216,0.432,0.312,0.791,0.312h0.912c0.359,0,0.539-0.096,0.791-0.312
			c0.336-0.288,0.42-0.443,0.42-0.684v-2.17c0-0.24-0.084-0.396-0.42-0.684c-0.252-0.216-0.432-0.312-0.791-0.312h-0.912
			c-0.359,0-0.539,0.096-0.791,0.312c-0.336,0.288-0.42,0.444-0.42,0.684V-261.803z"/>
		<path d="M-692.814-266.121c0.396,0,0.719,0.216,1.139,0.636l0.192,0.204v-2.422c0-0.396,0.084-0.792,0.575-0.792
			c0.492,0,0.576,0.396,0.576,0.792v7.244c0,0.396-0.084,0.804-0.576,0.804c-0.455,0-0.575-0.384-0.575-0.768v-0.072l-0.252,0.251
			c-0.36,0.336-0.756,0.588-1.104,0.588h-1.115c-0.384,0-0.815-0.264-0.983-0.408l-0.396-0.336c-0.479-0.408-0.635-0.72-0.635-1.331
			v-2.315c0-0.612,0.156-0.923,0.635-1.331l0.396-0.336c0.359-0.312,0.623-0.408,1.104-0.408H-692.814z M-694.818-262.187
			c0,0.324,0,0.732,0.181,0.875l0.348,0.276c0.144,0.12,0.288,0.228,0.432,0.228h0.815c0.145,0,0.348-0.096,0.564-0.288l0.659-0.563
			c0.168-0.144,0.336-0.288,0.336-0.504v-1.451c0-0.216-0.168-0.359-0.336-0.503l-0.659-0.564c-0.217-0.192-0.42-0.288-0.564-0.288
			h-0.815c-0.144,0-0.288,0.108-0.432,0.228l-0.348,0.275c-0.181,0.144-0.181,0.552-0.181,0.876V-262.187z"/>
		<path d="M-685.219-259.656c-0.479,0-0.672,0-1.031-0.312l-0.492-0.432c-0.455-0.408-0.588-0.671-0.588-1.295v-2.219
			c0-0.611,0.084-0.971,0.564-1.379l0.408-0.348c0.539-0.468,0.803-0.479,1.271-0.479h1.056c0.563,0,0.828,0.06,1.271,0.419
			l0.468,0.372c0.527,0.42,0.6,0.863,0.6,1.499v0.924c0,0.659-0.108,0.852-0.792,0.852h-3.693v0.384
			c0,0.108,0.084,0.251,0.168,0.335l0.287,0.312c0.156,0.168,0.385,0.216,0.768,0.216h2.471c0.385,0,0.792,0.084,0.792,0.576
			c0,0.504-0.456,0.576-0.792,0.576H-685.219z M-686.178-263.206h3.334v-0.696c0-0.216,0.012-0.396-0.145-0.54l-0.443-0.384
			c-0.145-0.132-0.371-0.144-0.552-0.144h-0.972c-0.215,0-0.396,0-0.588,0.132l-0.395,0.288c-0.145,0.108-0.24,0.192-0.24,0.528
			V-263.206z"/>
	</g>
	<g>
		<path d="M-735.749-260.808h0.863c0.384,0,0.792,0.084,0.792,0.576c0,0.504-0.456,0.576-0.792,0.576h-2.927
			c-0.336,0-0.791-0.072-0.791-0.576c0-0.492,0.408-0.576,0.791-0.576h0.912v-4.162h-0.912c-0.336,0-0.791-0.072-0.791-0.576
			c0-0.492,0.408-0.576,0.791-0.576h1.212c0.659,0,0.852,0.12,0.852,0.803V-260.808z M-737.488-268.447
			c0-0.408,0.229-0.54,0.539-0.54h0.66c0.312,0,0.54,0.132,0.54,0.54v0.552c0,0.408-0.228,0.54-0.54,0.54h-0.66
			c-0.311,0-0.539-0.132-0.539-0.54V-268.447z"/>
		<path d="M-727.373-266.121c0.396,0,0.719,0.216,1.139,0.636l0.192,0.204v-2.422c0-0.396,0.084-0.792,0.575-0.792
			c0.492,0,0.576,0.396,0.576,0.792v7.244c0,0.396-0.084,0.804-0.576,0.804c-0.455,0-0.575-0.384-0.575-0.768v-0.072l-0.252,0.251
			c-0.36,0.336-0.756,0.588-1.104,0.588h-1.115c-0.384,0-0.815-0.264-0.983-0.408l-0.396-0.336c-0.479-0.408-0.635-0.72-0.635-1.331
			v-2.315c0-0.612,0.156-0.923,0.635-1.331l0.396-0.336c0.359-0.312,0.623-0.408,1.104-0.408H-727.373z M-729.377-262.187
			c0,0.324,0,0.732,0.181,0.875l0.348,0.276c0.144,0.12,0.288,0.228,0.432,0.228h0.815c0.145,0,0.348-0.096,0.564-0.288l0.659-0.563
			c0.168-0.144,0.336-0.288,0.336-0.504v-1.451c0-0.216-0.168-0.359-0.336-0.503l-0.659-0.564c-0.217-0.192-0.42-0.288-0.564-0.288
			h-0.815c-0.144,0-0.288,0.108-0.432,0.228l-0.348,0.275c-0.181,0.144-0.181,0.552-0.181,0.876V-262.187z"/>
		<path d="M-713.248-263.446c0-0.708,0.132-1.055,0.684-1.511l0.852-0.708c0.539-0.444,0.815-0.456,1.486-0.456h1.824
			c0.383,0,0.791,0.084,0.791,0.576c0,0.503-0.456,0.576-0.791,0.576h-2.027c-0.229,0-0.456,0.12-0.66,0.288l-0.695,0.588
			c-0.18,0.144-0.312,0.264-0.312,0.492v1.427c0,0.228,0.133,0.348,0.312,0.492l0.695,0.587c0.204,0.168,0.432,0.288,0.66,0.288
			h2.027c0.335,0,0.791,0.072,0.791,0.576c0,0.492-0.408,0.576-0.791,0.576h-1.824c-0.671,0-0.947-0.012-1.486-0.456l-0.852-0.708
			c-0.552-0.456-0.684-0.803-0.684-1.511V-263.446z"/>
		<path d="M-704.609-263.974c0-0.768,0.156-1.032,0.732-1.5c0.563-0.468,0.827-0.647,1.631-0.647h0.912
			c0.803,0,1.066,0.18,1.631,0.647c0.575,0.468,0.731,0.732,0.731,1.5v2.17c0,0.756-0.192,1.043-0.792,1.547s-0.84,0.6-1.57,0.6
			h-0.912c-0.731,0-0.971-0.096-1.571-0.6c-0.6-0.504-0.792-0.792-0.792-1.547V-263.974z M-703.457-261.803
			c0,0.24,0.084,0.396,0.42,0.684c0.252,0.216,0.432,0.312,0.791,0.312h0.912c0.359,0,0.539-0.096,0.791-0.312
			c0.336-0.288,0.42-0.443,0.42-0.684v-2.17c0-0.24-0.084-0.396-0.42-0.684c-0.252-0.216-0.432-0.312-0.791-0.312h-0.912
			c-0.359,0-0.539,0.096-0.791,0.312c-0.336,0.288-0.42,0.444-0.42,0.684V-261.803z"/>
		<path d="M-692.814-266.121c0.396,0,0.719,0.216,1.139,0.636l0.192,0.204v-2.422c0-0.396,0.084-0.792,0.575-0.792
			c0.492,0,0.576,0.396,0.576,0.792v7.244c0,0.396-0.084,0.804-0.576,0.804c-0.455,0-0.575-0.384-0.575-0.768v-0.072l-0.252,0.251
			c-0.36,0.336-0.756,0.588-1.104,0.588h-1.115c-0.384,0-0.815-0.264-0.983-0.408l-0.396-0.336c-0.479-0.408-0.635-0.72-0.635-1.331
			v-2.315c0-0.612,0.156-0.923,0.635-1.331l0.396-0.336c0.359-0.312,0.623-0.408,1.104-0.408H-692.814z M-694.818-262.187
			c0,0.324,0,0.732,0.181,0.875l0.348,0.276c0.144,0.12,0.288,0.228,0.432,0.228h0.815c0.145,0,0.348-0.096,0.564-0.288l0.659-0.563
			c0.168-0.144,0.336-0.288,0.336-0.504v-1.451c0-0.216-0.168-0.359-0.336-0.503l-0.659-0.564c-0.217-0.192-0.42-0.288-0.564-0.288
			h-0.815c-0.144,0-0.288,0.108-0.432,0.228l-0.348,0.275c-0.181,0.144-0.181,0.552-0.181,0.876V-262.187z"/>
		<path d="M-685.219-259.656c-0.479,0-0.672,0-1.031-0.312l-0.492-0.432c-0.455-0.408-0.588-0.671-0.588-1.295v-2.219
			c0-0.611,0.084-0.971,0.564-1.379l0.408-0.348c0.539-0.468,0.803-0.479,1.271-0.479h1.056c0.563,0,0.828,0.06,1.271,0.419
			l0.468,0.372c0.527,0.42,0.6,0.863,0.6,1.499v0.924c0,0.659-0.108,0.852-0.792,0.852h-3.693v0.384
			c0,0.108,0.084,0.251,0.168,0.335l0.287,0.312c0.156,0.168,0.385,0.216,0.768,0.216h2.471c0.385,0,0.792,0.084,0.792,0.576
			c0,0.504-0.456,0.576-0.792,0.576H-685.219z M-686.178-263.206h3.334v-0.696c0-0.216,0.012-0.396-0.145-0.54l-0.443-0.384
			c-0.145-0.132-0.371-0.144-0.552-0.144h-0.972c-0.215,0-0.396,0-0.588,0.132l-0.395,0.288c-0.145,0.108-0.24,0.192-0.24,0.528
			V-263.206z"/>
	</g>
	<g>
		<path d="M-735.749-260.808h0.863c0.384,0,0.792,0.084,0.792,0.576c0,0.504-0.456,0.576-0.792,0.576h-2.927
			c-0.336,0-0.791-0.072-0.791-0.576c0-0.492,0.408-0.576,0.791-0.576h0.912v-4.162h-0.912c-0.336,0-0.791-0.072-0.791-0.576
			c0-0.492,0.408-0.576,0.791-0.576h1.212c0.659,0,0.852,0.12,0.852,0.803V-260.808z M-737.488-268.447
			c0-0.408,0.229-0.54,0.539-0.54h0.66c0.312,0,0.54,0.132,0.54,0.54v0.552c0,0.408-0.228,0.54-0.54,0.54h-0.66
			c-0.311,0-0.539-0.132-0.539-0.54V-268.447z"/>
		<path d="M-727.373-266.121c0.396,0,0.719,0.216,1.139,0.636l0.192,0.204v-2.422c0-0.396,0.084-0.792,0.575-0.792
			c0.492,0,0.576,0.396,0.576,0.792v7.244c0,0.396-0.084,0.804-0.576,0.804c-0.455,0-0.575-0.384-0.575-0.768v-0.072l-0.252,0.251
			c-0.36,0.336-0.756,0.588-1.104,0.588h-1.115c-0.384,0-0.815-0.264-0.983-0.408l-0.396-0.336c-0.479-0.408-0.635-0.72-0.635-1.331
			v-2.315c0-0.612,0.156-0.923,0.635-1.331l0.396-0.336c0.359-0.312,0.623-0.408,1.104-0.408H-727.373z M-729.377-262.187
			c0,0.324,0,0.732,0.181,0.875l0.348,0.276c0.144,0.12,0.288,0.228,0.432,0.228h0.815c0.145,0,0.348-0.096,0.564-0.288l0.659-0.563
			c0.168-0.144,0.336-0.288,0.336-0.504v-1.451c0-0.216-0.168-0.359-0.336-0.503l-0.659-0.564c-0.217-0.192-0.42-0.288-0.564-0.288
			h-0.815c-0.144,0-0.288,0.108-0.432,0.228l-0.348,0.275c-0.181,0.144-0.181,0.552-0.181,0.876V-262.187z"/>
		<path d="M-713.248-263.446c0-0.708,0.132-1.055,0.684-1.511l0.852-0.708c0.539-0.444,0.815-0.456,1.486-0.456h1.824
			c0.383,0,0.791,0.084,0.791,0.576c0,0.503-0.456,0.576-0.791,0.576h-2.027c-0.229,0-0.456,0.12-0.66,0.288l-0.695,0.588
			c-0.18,0.144-0.312,0.264-0.312,0.492v1.427c0,0.228,0.133,0.348,0.312,0.492l0.695,0.587c0.204,0.168,0.432,0.288,0.66,0.288
			h2.027c0.335,0,0.791,0.072,0.791,0.576c0,0.492-0.408,0.576-0.791,0.576h-1.824c-0.671,0-0.947-0.012-1.486-0.456l-0.852-0.708
			c-0.552-0.456-0.684-0.803-0.684-1.511V-263.446z"/>
		<path d="M-704.609-263.974c0-0.768,0.156-1.032,0.732-1.5c0.563-0.468,0.827-0.647,1.631-0.647h0.912
			c0.803,0,1.066,0.18,1.631,0.647c0.575,0.468,0.731,0.732,0.731,1.5v2.17c0,0.756-0.192,1.043-0.792,1.547s-0.84,0.6-1.57,0.6
			h-0.912c-0.731,0-0.971-0.096-1.571-0.6c-0.6-0.504-0.792-0.792-0.792-1.547V-263.974z M-703.457-261.803
			c0,0.24,0.084,0.396,0.42,0.684c0.252,0.216,0.432,0.312,0.791,0.312h0.912c0.359,0,0.539-0.096,0.791-0.312
			c0.336-0.288,0.42-0.443,0.42-0.684v-2.17c0-0.24-0.084-0.396-0.42-0.684c-0.252-0.216-0.432-0.312-0.791-0.312h-0.912
			c-0.359,0-0.539,0.096-0.791,0.312c-0.336,0.288-0.42,0.444-0.42,0.684V-261.803z"/>
		<path d="M-692.814-266.121c0.396,0,0.719,0.216,1.139,0.636l0.192,0.204v-2.422c0-0.396,0.084-0.792,0.575-0.792
			c0.492,0,0.576,0.396,0.576,0.792v7.244c0,0.396-0.084,0.804-0.576,0.804c-0.455,0-0.575-0.384-0.575-0.768v-0.072l-0.252,0.251
			c-0.36,0.336-0.756,0.588-1.104,0.588h-1.115c-0.384,0-0.815-0.264-0.983-0.408l-0.396-0.336c-0.479-0.408-0.635-0.72-0.635-1.331
			v-2.315c0-0.612,0.156-0.923,0.635-1.331l0.396-0.336c0.359-0.312,0.623-0.408,1.104-0.408H-692.814z M-694.818-262.187
			c0,0.324,0,0.732,0.181,0.875l0.348,0.276c0.144,0.12,0.288,0.228,0.432,0.228h0.815c0.145,0,0.348-0.096,0.564-0.288l0.659-0.563
			c0.168-0.144,0.336-0.288,0.336-0.504v-1.451c0-0.216-0.168-0.359-0.336-0.503l-0.659-0.564c-0.217-0.192-0.42-0.288-0.564-0.288
			h-0.815c-0.144,0-0.288,0.108-0.432,0.228l-0.348,0.275c-0.181,0.144-0.181,0.552-0.181,0.876V-262.187z"/>
		<path d="M-685.219-259.656c-0.479,0-0.672,0-1.031-0.312l-0.492-0.432c-0.455-0.408-0.588-0.671-0.588-1.295v-2.219
			c0-0.611,0.084-0.971,0.564-1.379l0.408-0.348c0.539-0.468,0.803-0.479,1.271-0.479h1.056c0.563,0,0.828,0.06,1.271,0.419
			l0.468,0.372c0.527,0.42,0.6,0.863,0.6,1.499v0.924c0,0.659-0.108,0.852-0.792,0.852h-3.693v0.384
			c0,0.108,0.084,0.251,0.168,0.335l0.287,0.312c0.156,0.168,0.385,0.216,0.768,0.216h2.471c0.385,0,0.792,0.084,0.792,0.576
			c0,0.504-0.456,0.576-0.792,0.576H-685.219z M-686.178-263.206h3.334v-0.696c0-0.216,0.012-0.396-0.145-0.54l-0.443-0.384
			c-0.145-0.132-0.371-0.144-0.552-0.144h-0.972c-0.215,0-0.396,0-0.588,0.132l-0.395,0.288c-0.145,0.108-0.24,0.192-0.24,0.528
			V-263.206z"/>
	</g>
	<g>
		<path d="M-735.749-260.808h0.863c0.384,0,0.792,0.084,0.792,0.576c0,0.504-0.456,0.576-0.792,0.576h-2.927
			c-0.336,0-0.791-0.072-0.791-0.576c0-0.492,0.408-0.576,0.791-0.576h0.912v-4.162h-0.912c-0.336,0-0.791-0.072-0.791-0.576
			c0-0.492,0.408-0.576,0.791-0.576h1.212c0.659,0,0.852,0.12,0.852,0.803V-260.808z M-737.488-268.447
			c0-0.408,0.229-0.54,0.539-0.54h0.66c0.312,0,0.54,0.132,0.54,0.54v0.552c0,0.408-0.228,0.54-0.54,0.54h-0.66
			c-0.311,0-0.539-0.132-0.539-0.54V-268.447z"/>
		<path d="M-727.373-266.121c0.396,0,0.719,0.216,1.139,0.636l0.192,0.204v-2.422c0-0.396,0.084-0.792,0.575-0.792
			c0.492,0,0.576,0.396,0.576,0.792v7.244c0,0.396-0.084,0.804-0.576,0.804c-0.455,0-0.575-0.384-0.575-0.768v-0.072l-0.252,0.251
			c-0.36,0.336-0.756,0.588-1.104,0.588h-1.115c-0.384,0-0.815-0.264-0.983-0.408l-0.396-0.336c-0.479-0.408-0.635-0.72-0.635-1.331
			v-2.315c0-0.612,0.156-0.923,0.635-1.331l0.396-0.336c0.359-0.312,0.623-0.408,1.104-0.408H-727.373z M-729.377-262.187
			c0,0.324,0,0.732,0.181,0.875l0.348,0.276c0.144,0.12,0.288,0.228,0.432,0.228h0.815c0.145,0,0.348-0.096,0.564-0.288l0.659-0.563
			c0.168-0.144,0.336-0.288,0.336-0.504v-1.451c0-0.216-0.168-0.359-0.336-0.503l-0.659-0.564c-0.217-0.192-0.42-0.288-0.564-0.288
			h-0.815c-0.144,0-0.288,0.108-0.432,0.228l-0.348,0.275c-0.181,0.144-0.181,0.552-0.181,0.876V-262.187z"/>
		<path d="M-713.248-263.446c0-0.708,0.132-1.055,0.684-1.511l0.852-0.708c0.539-0.444,0.815-0.456,1.486-0.456h1.824
			c0.383,0,0.791,0.084,0.791,0.576c0,0.503-0.456,0.576-0.791,0.576h-2.027c-0.229,0-0.456,0.12-0.66,0.288l-0.695,0.588
			c-0.18,0.144-0.312,0.264-0.312,0.492v1.427c0,0.228,0.133,0.348,0.312,0.492l0.695,0.587c0.204,0.168,0.432,0.288,0.66,0.288
			h2.027c0.335,0,0.791,0.072,0.791,0.576c0,0.492-0.408,0.576-0.791,0.576h-1.824c-0.671,0-0.947-0.012-1.486-0.456l-0.852-0.708
			c-0.552-0.456-0.684-0.803-0.684-1.511V-263.446z"/>
		<path d="M-704.609-263.974c0-0.768,0.156-1.032,0.732-1.5c0.563-0.468,0.827-0.647,1.631-0.647h0.912
			c0.803,0,1.066,0.18,1.631,0.647c0.575,0.468,0.731,0.732,0.731,1.5v2.17c0,0.756-0.192,1.043-0.792,1.547s-0.84,0.6-1.57,0.6
			h-0.912c-0.731,0-0.971-0.096-1.571-0.6c-0.6-0.504-0.792-0.792-0.792-1.547V-263.974z M-703.457-261.803
			c0,0.24,0.084,0.396,0.42,0.684c0.252,0.216,0.432,0.312,0.791,0.312h0.912c0.359,0,0.539-0.096,0.791-0.312
			c0.336-0.288,0.42-0.443,0.42-0.684v-2.17c0-0.24-0.084-0.396-0.42-0.684c-0.252-0.216-0.432-0.312-0.791-0.312h-0.912
			c-0.359,0-0.539,0.096-0.791,0.312c-0.336,0.288-0.42,0.444-0.42,0.684V-261.803z"/>
		<path d="M-692.814-266.121c0.396,0,0.719,0.216,1.139,0.636l0.192,0.204v-2.422c0-0.396,0.084-0.792,0.575-0.792
			c0.492,0,0.576,0.396,0.576,0.792v7.244c0,0.396-0.084,0.804-0.576,0.804c-0.455,0-0.575-0.384-0.575-0.768v-0.072l-0.252,0.251
			c-0.36,0.336-0.756,0.588-1.104,0.588h-1.115c-0.384,0-0.815-0.264-0.983-0.408l-0.396-0.336c-0.479-0.408-0.635-0.72-0.635-1.331
			v-2.315c0-0.612,0.156-0.923,0.635-1.331l0.396-0.336c0.359-0.312,0.623-0.408,1.104-0.408H-692.814z M-694.818-262.187
			c0,0.324,0,0.732,0.181,0.875l0.348,0.276c0.144,0.12,0.288,0.228,0.432,0.228h0.815c0.145,0,0.348-0.096,0.564-0.288l0.659-0.563
			c0.168-0.144,0.336-0.288,0.336-0.504v-1.451c0-0.216-0.168-0.359-0.336-0.503l-0.659-0.564c-0.217-0.192-0.42-0.288-0.564-0.288
			h-0.815c-0.144,0-0.288,0.108-0.432,0.228l-0.348,0.275c-0.181,0.144-0.181,0.552-0.181,0.876V-262.187z"/>
		<path d="M-685.219-259.656c-0.479,0-0.672,0-1.031-0.312l-0.492-0.432c-0.455-0.408-0.588-0.671-0.588-1.295v-2.219
			c0-0.611,0.084-0.971,0.564-1.379l0.408-0.348c0.539-0.468,0.803-0.479,1.271-0.479h1.056c0.563,0,0.828,0.06,1.271,0.419
			l0.468,0.372c0.527,0.42,0.6,0.863,0.6,1.499v0.924c0,0.659-0.108,0.852-0.792,0.852h-3.693v0.384
			c0,0.108,0.084,0.251,0.168,0.335l0.287,0.312c0.156,0.168,0.385,0.216,0.768,0.216h2.471c0.385,0,0.792,0.084,0.792,0.576
			c0,0.504-0.456,0.576-0.792,0.576H-685.219z M-686.178-263.206h3.334v-0.696c0-0.216,0.012-0.396-0.145-0.54l-0.443-0.384
			c-0.145-0.132-0.371-0.144-0.552-0.144h-0.972c-0.215,0-0.396,0-0.588,0.132l-0.395,0.288c-0.145,0.108-0.24,0.192-0.24,0.528
			V-263.206z"/>
	</g>
</g>
<path fill="#FFFFFF" d="M-739.406-221.434v-0.804h2.088v-4.392h-2.088v-0.804h3.035v5.196h2.041v0.804H-739.406z M-737.654-229.138
	c0-0.216,0.072-0.402,0.216-0.558c0.144-0.156,0.328-0.234,0.552-0.234c0.232,0,0.426,0.078,0.582,0.234
	c0.156,0.156,0.234,0.342,0.234,0.558c0,0.208-0.078,0.384-0.234,0.528c-0.156,0.144-0.35,0.216-0.582,0.216
	c-0.224,0-0.408-0.072-0.552-0.216C-737.582-228.754-737.654-228.93-737.654-229.138z"/>
<path fill="#FFFFFF" d="M-729.291-229.834h1.956v6.348c0,0.072,0.004,0.162,0.013,0.27c0.008,0.108,0.018,0.222,0.029,0.342
	s0.025,0.238,0.042,0.354c0.017,0.116,0.032,0.218,0.048,0.306h0.805v0.78h-1.607l-0.121-0.924h-0.048
	c-0.175,0.304-0.437,0.558-0.784,0.762c-0.347,0.204-0.748,0.306-1.203,0.306c-0.901,0-1.565-0.254-1.992-0.762
	c-0.428-0.508-0.641-1.298-0.641-2.37c0-0.504,0.072-0.95,0.215-1.338c0.145-0.388,0.35-0.712,0.617-0.972
	c0.268-0.26,0.588-0.458,0.963-0.594c0.375-0.136,0.795-0.204,1.258-0.204c0.167,0,0.316,0.004,0.448,0.012s0.253,0.02,0.364,0.036
	c0.112,0.016,0.219,0.038,0.318,0.066s0.209,0.058,0.328,0.09v-1.704h-1.008V-229.834z M-730.005-222.094
	c0.486,0,0.869-0.126,1.147-0.378c0.279-0.252,0.471-0.63,0.574-1.134v-2.784c-0.176-0.12-0.373-0.208-0.592-0.264
	c-0.219-0.056-0.508-0.084-0.867-0.084c-0.637,0-1.14,0.186-1.506,0.558c-0.367,0.372-0.551,0.958-0.551,1.758
	c0,0.328,0.029,0.634,0.09,0.918c0.06,0.284,0.159,0.53,0.299,0.738s0.324,0.372,0.557,0.492
	C-730.623-222.154-730.34-222.094-730.005-222.094z"/>
<path d="M-713.799-226.51c-0.185-0.064-0.383-0.118-0.595-0.162s-0.422-0.066-0.63-0.066c-0.784,0-1.368,0.185-1.752,0.554
	s-0.576,0.955-0.576,1.756c0,0.353,0.057,0.668,0.168,0.945c0.112,0.277,0.271,0.511,0.48,0.704c0.207,0.193,0.457,0.341,0.75,0.445
	c0.291,0.104,0.613,0.156,0.966,0.156c0.376,0,0.741-0.065,1.099-0.195c0.355-0.13,0.653-0.301,0.893-0.513l0.421,0.696
	c-0.112,0.096-0.252,0.196-0.421,0.3c-0.168,0.104-0.361,0.202-0.581,0.294c-0.22,0.092-0.464,0.166-0.732,0.222
	c-0.269,0.056-0.558,0.084-0.87,0.084c-0.52,0-0.978-0.074-1.373-0.222c-0.396-0.148-0.727-0.36-0.99-0.636
	c-0.265-0.276-0.465-0.608-0.601-0.996s-0.204-0.818-0.204-1.29c0-0.504,0.07-0.952,0.211-1.344c0.139-0.392,0.342-0.72,0.605-0.984
	c0.264-0.264,0.584-0.466,0.96-0.606c0.376-0.14,0.796-0.21,1.26-0.21c0.593,0,1.074,0.052,1.446,0.156s0.686,0.22,0.941,0.348
	l-0.012,0.036v1.668h-0.863V-226.51z"/>
<path d="M-711.184-224.434c0-0.968,0.252-1.734,0.756-2.298s1.225-0.846,2.16-0.846c0.504,0,0.938,0.082,1.302,0.246
	s0.666,0.386,0.906,0.666c0.239,0.28,0.418,0.612,0.534,0.996c0.115,0.384,0.174,0.796,0.174,1.236c0,0.48-0.064,0.914-0.191,1.302
	c-0.129,0.388-0.316,0.718-0.564,0.99s-0.555,0.482-0.918,0.63c-0.364,0.148-0.778,0.222-1.242,0.222
	c-0.496,0-0.928-0.082-1.296-0.246s-0.673-0.386-0.912-0.666c-0.24-0.28-0.419-0.612-0.534-0.996
	C-711.126-223.582-711.184-223.994-711.184-224.434z M-710.188-224.434c0,0.28,0.033,0.56,0.102,0.84
	c0.068,0.28,0.178,0.532,0.329,0.756c0.151,0.224,0.349,0.404,0.592,0.54c0.243,0.136,0.54,0.204,0.892,0.204
	c0.638,0,1.118-0.198,1.441-0.594c0.322-0.396,0.484-0.978,0.484-1.746c0-0.288-0.034-0.57-0.102-0.846
	c-0.068-0.276-0.18-0.526-0.335-0.75c-0.155-0.224-0.354-0.404-0.599-0.54c-0.243-0.136-0.54-0.204-0.891-0.204
	c-0.639,0-1.117,0.196-1.436,0.588C-710.028-225.794-710.188-225.21-710.188-224.434z"/>
<path d="M-700.492-229.834h1.956v6.348c0,0.072,0.004,0.162,0.013,0.27c0.008,0.108,0.018,0.222,0.029,0.342
	s0.025,0.238,0.042,0.354c0.017,0.116,0.032,0.218,0.048,0.306h0.805v0.78h-1.607l-0.121-0.924h-0.048
	c-0.175,0.304-0.437,0.558-0.784,0.762c-0.347,0.204-0.748,0.306-1.203,0.306c-0.901,0-1.565-0.254-1.992-0.762
	c-0.428-0.508-0.641-1.298-0.641-2.37c0-0.504,0.072-0.95,0.215-1.338c0.145-0.388,0.35-0.712,0.617-0.972
	c0.268-0.26,0.588-0.458,0.963-0.594c0.375-0.136,0.795-0.204,1.258-0.204c0.167,0,0.316,0.004,0.448,0.012s0.253,0.02,0.364,0.036
	c0.112,0.016,0.219,0.038,0.318,0.066s0.209,0.058,0.328,0.09v-1.704h-1.008V-229.834z M-701.206-222.094
	c0.486,0,0.869-0.126,1.147-0.378c0.279-0.252,0.471-0.63,0.574-1.134v-2.784c-0.176-0.12-0.373-0.208-0.592-0.264
	c-0.219-0.056-0.508-0.084-0.867-0.084c-0.637,0-1.14,0.186-1.506,0.558c-0.367,0.372-0.551,0.958-0.551,1.758
	c0,0.328,0.029,0.634,0.09,0.918c0.06,0.284,0.159,0.53,0.299,0.738s0.324,0.372,0.557,0.492
	C-701.824-222.154-701.541-222.094-701.206-222.094z"/>
<path d="M-691.12-222.19c-0.144,0.128-0.313,0.248-0.511,0.36c-0.195,0.112-0.41,0.208-0.642,0.288s-0.474,0.142-0.726,0.186
	s-0.506,0.066-0.762,0.066c-0.48,0-0.904-0.074-1.272-0.222s-0.677-0.36-0.924-0.636c-0.248-0.276-0.437-0.606-0.563-0.99
	c-0.129-0.384-0.193-0.816-0.193-1.296c0-0.504,0.07-0.952,0.211-1.344c0.14-0.392,0.342-0.72,0.605-0.984
	c0.264-0.264,0.584-0.466,0.961-0.606c0.375-0.14,0.795-0.21,1.26-0.21c0.336,0,0.668,0.044,0.996,0.132
	c0.327,0.088,0.617,0.254,0.869,0.498c0.252,0.244,0.446,0.58,0.582,1.008c0.137,0.428,0.184,0.982,0.145,1.662h-4.633
	c0,0.72,0.193,1.258,0.581,1.614s0.903,0.534,1.55,0.534c0.215,0,0.429-0.026,0.641-0.078c0.211-0.052,0.412-0.114,0.604-0.186
	c0.192-0.072,0.361-0.152,0.51-0.24c0.146-0.088,0.261-0.168,0.341-0.24L-691.12-222.19z M-693.646-226.786
	c-0.264,0-0.513,0.028-0.748,0.084c-0.235,0.056-0.442,0.15-0.622,0.282c-0.179,0.132-0.327,0.304-0.442,0.516
	c-0.115,0.212-0.189,0.474-0.221,0.786h3.719c-0.039-0.528-0.209-0.938-0.508-1.23S-693.16-226.786-693.646-226.786z"/>
<rect x="-648.795" y="-235.831" fill="#A9CF38" width="21.5" height="21.5"/>
<rect x="-619.878" y="-273.305" fill="#A9CF38" width="21.5" height="21.5"/>
<path fill="#FFFFFF" d="M-644.656-221.434v-0.804h2.088v-4.392h-2.088v-0.804h3.035v5.196h2.041v0.804H-644.656z M-642.904-229.138
	c0-0.216,0.072-0.402,0.216-0.558c0.144-0.156,0.328-0.234,0.552-0.234c0.232,0,0.426,0.078,0.582,0.234
	c0.156,0.156,0.234,0.342,0.234,0.558c0,0.208-0.078,0.384-0.234,0.528c-0.156,0.144-0.35,0.216-0.582,0.216
	c-0.224,0-0.408-0.072-0.552-0.216C-642.832-228.754-642.904-228.93-642.904-229.138z"/>
<g>
	<path fill="#FFFFFF" d="M-634.541-229.834h1.956v6.348c0,0.072,0.004,0.162,0.013,0.27c0.008,0.108,0.018,0.222,0.029,0.342
		s0.025,0.238,0.042,0.354c0.017,0.116,0.032,0.218,0.048,0.306h0.805v0.78h-1.607l-0.121-0.924h-0.048
		c-0.175,0.304-0.437,0.558-0.784,0.762c-0.347,0.204-0.748,0.306-1.203,0.306c-0.901,0-1.565-0.254-1.992-0.762
		c-0.428-0.508-0.641-1.298-0.641-2.37c0-0.504,0.072-0.95,0.215-1.338c0.145-0.388,0.35-0.712,0.617-0.972
		c0.268-0.26,0.588-0.458,0.963-0.594c0.375-0.136,0.795-0.204,1.258-0.204c0.167,0,0.316,0.004,0.448,0.012s0.253,0.02,0.364,0.036
		c0.112,0.016,0.219,0.038,0.318,0.066s0.209,0.058,0.328,0.09v-1.704h-1.008V-229.834z M-635.255-222.094
		c0.486,0,0.869-0.126,1.147-0.378c0.279-0.252,0.471-0.63,0.574-1.134v-2.784c-0.176-0.12-0.373-0.208-0.592-0.264
		c-0.219-0.056-0.508-0.084-0.867-0.084c-0.637,0-1.14,0.186-1.506,0.558c-0.367,0.372-0.551,0.958-0.551,1.758
		c0,0.328,0.029,0.634,0.09,0.918c0.06,0.284,0.159,0.53,0.299,0.738s0.324,0.372,0.557,0.492
		C-635.873-222.154-635.59-222.094-635.255-222.094z"/>
	<path fill="#FFFFFF" d="M-634.541-229.834h1.956v6.348c0,0.072,0.004,0.162,0.013,0.27c0.008,0.108,0.018,0.222,0.029,0.342
		s0.025,0.238,0.042,0.354c0.017,0.116,0.032,0.218,0.048,0.306h0.805v0.78h-1.607l-0.121-0.924h-0.048
		c-0.175,0.304-0.437,0.558-0.784,0.762c-0.347,0.204-0.748,0.306-1.203,0.306c-0.901,0-1.565-0.254-1.992-0.762
		c-0.428-0.508-0.641-1.298-0.641-2.37c0-0.504,0.072-0.95,0.215-1.338c0.145-0.388,0.35-0.712,0.617-0.972
		c0.268-0.26,0.588-0.458,0.963-0.594c0.375-0.136,0.795-0.204,1.258-0.204c0.167,0,0.316,0.004,0.448,0.012s0.253,0.02,0.364,0.036
		c0.112,0.016,0.219,0.038,0.318,0.066s0.209,0.058,0.328,0.09v-1.704h-1.008V-229.834z M-635.255-222.094
		c0.486,0,0.869-0.126,1.147-0.378c0.279-0.252,0.471-0.63,0.574-1.134v-2.784c-0.176-0.12-0.373-0.208-0.592-0.264
		c-0.219-0.056-0.508-0.084-0.867-0.084c-0.637,0-1.14,0.186-1.506,0.558c-0.367,0.372-0.551,0.958-0.551,1.758
		c0,0.328,0.029,0.634,0.09,0.918c0.06,0.284,0.159,0.53,0.299,0.738s0.324,0.372,0.557,0.492
		C-635.873-222.154-635.59-222.094-635.255-222.094z"/>
	<path fill="#FFFFFF" d="M-634.541-229.834h1.956v6.348c0,0.072,0.004,0.162,0.013,0.27c0.008,0.108,0.018,0.222,0.029,0.342
		s0.025,0.238,0.042,0.354c0.017,0.116,0.032,0.218,0.048,0.306h0.805v0.78h-1.607l-0.121-0.924h-0.048
		c-0.175,0.304-0.437,0.558-0.784,0.762c-0.347,0.204-0.748,0.306-1.203,0.306c-0.901,0-1.565-0.254-1.992-0.762
		c-0.428-0.508-0.641-1.298-0.641-2.37c0-0.504,0.072-0.95,0.215-1.338c0.145-0.388,0.35-0.712,0.617-0.972
		c0.268-0.26,0.588-0.458,0.963-0.594c0.375-0.136,0.795-0.204,1.258-0.204c0.167,0,0.316,0.004,0.448,0.012s0.253,0.02,0.364,0.036
		c0.112,0.016,0.219,0.038,0.318,0.066s0.209,0.058,0.328,0.09v-1.704h-1.008V-229.834z M-635.255-222.094
		c0.486,0,0.869-0.126,1.147-0.378c0.279-0.252,0.471-0.63,0.574-1.134v-2.784c-0.176-0.12-0.373-0.208-0.592-0.264
		c-0.219-0.056-0.508-0.084-0.867-0.084c-0.637,0-1.14,0.186-1.506,0.558c-0.367,0.372-0.551,0.958-0.551,1.758
		c0,0.328,0.029,0.634,0.09,0.918c0.06,0.284,0.159,0.53,0.299,0.738s0.324,0.372,0.557,0.492
		C-635.873-222.154-635.59-222.094-635.255-222.094z"/>
</g>
<path d="M-619.049-226.51c-0.185-0.064-0.383-0.118-0.595-0.162s-0.422-0.066-0.63-0.066c-0.784,0-1.368,0.185-1.752,0.554
	s-0.576,0.955-0.576,1.756c0,0.353,0.057,0.668,0.168,0.945c0.112,0.277,0.271,0.511,0.48,0.704c0.207,0.193,0.457,0.341,0.75,0.445
	c0.291,0.104,0.613,0.156,0.966,0.156c0.376,0,0.741-0.065,1.099-0.195c0.355-0.13,0.653-0.301,0.893-0.513l0.421,0.696
	c-0.112,0.096-0.252,0.196-0.421,0.3c-0.168,0.104-0.361,0.202-0.581,0.294c-0.22,0.092-0.464,0.166-0.732,0.222
	c-0.269,0.056-0.558,0.084-0.87,0.084c-0.52,0-0.978-0.074-1.373-0.222c-0.396-0.148-0.727-0.36-0.99-0.636
	c-0.265-0.276-0.465-0.608-0.601-0.996s-0.204-0.818-0.204-1.29c0-0.504,0.07-0.952,0.211-1.344c0.139-0.392,0.342-0.72,0.605-0.984
	c0.264-0.264,0.584-0.466,0.96-0.606c0.376-0.14,0.796-0.21,1.26-0.21c0.593,0,1.074,0.052,1.446,0.156s0.686,0.22,0.941,0.348
	l-0.012,0.036v1.668h-0.863V-226.51z"/>
<path d="M-616.434-224.434c0-0.968,0.252-1.734,0.756-2.298s1.225-0.846,2.16-0.846c0.504,0,0.938,0.082,1.302,0.246
	s0.666,0.386,0.906,0.666c0.239,0.28,0.418,0.612,0.534,0.996c0.115,0.384,0.174,0.796,0.174,1.236c0,0.48-0.064,0.914-0.191,1.302
	c-0.129,0.388-0.316,0.718-0.564,0.99s-0.555,0.482-0.918,0.63c-0.364,0.148-0.778,0.222-1.242,0.222
	c-0.496,0-0.928-0.082-1.296-0.246s-0.673-0.386-0.912-0.666c-0.24-0.28-0.419-0.612-0.534-0.996
	C-616.376-223.582-616.434-223.994-616.434-224.434z M-615.438-224.434c0,0.28,0.033,0.56,0.102,0.84
	c0.068,0.28,0.178,0.532,0.329,0.756c0.151,0.224,0.349,0.404,0.592,0.54c0.243,0.136,0.54,0.204,0.892,0.204
	c0.638,0,1.118-0.198,1.441-0.594c0.322-0.396,0.484-0.978,0.484-1.746c0-0.288-0.034-0.57-0.102-0.846
	c-0.068-0.276-0.18-0.526-0.335-0.75c-0.155-0.224-0.354-0.404-0.599-0.54c-0.243-0.136-0.54-0.204-0.891-0.204
	c-0.639,0-1.117,0.196-1.436,0.588C-615.278-225.794-615.438-225.21-615.438-224.434z"/>
<path d="M-605.742-229.834h1.956v6.348c0,0.072,0.004,0.162,0.013,0.27c0.008,0.108,0.018,0.222,0.029,0.342
	s0.025,0.238,0.042,0.354c0.017,0.116,0.032,0.218,0.048,0.306h0.805v0.78h-1.607l-0.121-0.924h-0.048
	c-0.175,0.304-0.437,0.558-0.784,0.762c-0.347,0.204-0.748,0.306-1.203,0.306c-0.901,0-1.565-0.254-1.992-0.762
	c-0.428-0.508-0.641-1.298-0.641-2.37c0-0.504,0.072-0.95,0.215-1.338c0.145-0.388,0.35-0.712,0.617-0.972
	c0.268-0.26,0.588-0.458,0.963-0.594c0.375-0.136,0.795-0.204,1.258-0.204c0.167,0,0.316,0.004,0.448,0.012s0.253,0.02,0.364,0.036
	c0.112,0.016,0.219,0.038,0.318,0.066s0.209,0.058,0.328,0.09v-1.704h-1.008V-229.834z M-606.456-222.094
	c0.486,0,0.869-0.126,1.147-0.378c0.279-0.252,0.471-0.63,0.574-1.134v-2.784c-0.176-0.12-0.373-0.208-0.592-0.264
	c-0.219-0.056-0.508-0.084-0.867-0.084c-0.637,0-1.14,0.186-1.506,0.558c-0.367,0.372-0.551,0.958-0.551,1.758
	c0,0.328,0.029,0.634,0.09,0.918c0.06,0.284,0.159,0.53,0.299,0.738s0.324,0.372,0.557,0.492
	C-607.074-222.154-606.791-222.094-606.456-222.094z"/>
<path d="M-596.37-222.19c-0.144,0.128-0.313,0.248-0.511,0.36c-0.195,0.112-0.41,0.208-0.642,0.288s-0.474,0.142-0.726,0.186
	s-0.506,0.066-0.762,0.066c-0.48,0-0.904-0.074-1.272-0.222s-0.677-0.36-0.924-0.636c-0.248-0.276-0.437-0.606-0.563-0.99
	c-0.129-0.384-0.193-0.816-0.193-1.296c0-0.504,0.07-0.952,0.211-1.344c0.14-0.392,0.342-0.72,0.605-0.984
	c0.264-0.264,0.584-0.466,0.961-0.606c0.375-0.14,0.795-0.21,1.26-0.21c0.336,0,0.668,0.044,0.996,0.132
	c0.327,0.088,0.617,0.254,0.869,0.498c0.252,0.244,0.446,0.58,0.582,1.008c0.137,0.428,0.184,0.982,0.145,1.662h-4.633
	c0,0.72,0.193,1.258,0.581,1.614s0.903,0.534,1.55,0.534c0.215,0,0.429-0.026,0.641-0.078c0.211-0.052,0.412-0.114,0.604-0.186
	c0.192-0.072,0.361-0.152,0.51-0.24c0.146-0.088,0.261-0.168,0.341-0.24L-596.37-222.19z M-598.896-226.786
	c-0.264,0-0.513,0.028-0.748,0.084c-0.235,0.056-0.442,0.15-0.622,0.282c-0.179,0.132-0.327,0.304-0.442,0.516
	c-0.115,0.212-0.189,0.474-0.221,0.786h3.719c-0.039-0.528-0.209-0.938-0.508-1.23S-598.41-226.786-598.896-226.786z"/>
<rect x="-743.545" y="-198.894" fill="#E6DC74" width="21.5" height="21.5"/>
<path fill="#FFFFFF" d="M-739.406-184.497v-0.804h2.088v-4.392h-2.088v-0.804h3.035v5.196h2.041v0.804H-739.406z M-737.654-192.201
	c0-0.216,0.072-0.402,0.216-0.558c0.144-0.156,0.328-0.234,0.552-0.234c0.232,0,0.426,0.078,0.582,0.234
	c0.156,0.156,0.234,0.342,0.234,0.558c0,0.208-0.078,0.384-0.234,0.528c-0.156,0.144-0.35,0.216-0.582,0.216
	c-0.224,0-0.408-0.072-0.552-0.216C-737.582-191.817-737.654-191.993-737.654-192.201z"/>
<path fill="#FFFFFF" d="M-729.291-192.897h1.956v6.348c0,0.072,0.004,0.162,0.013,0.27c0.008,0.108,0.018,0.222,0.029,0.342
	s0.025,0.238,0.042,0.354c0.017,0.116,0.032,0.218,0.048,0.306h0.805v0.78h-1.607l-0.121-0.924h-0.048
	c-0.175,0.304-0.437,0.558-0.784,0.762c-0.347,0.204-0.748,0.306-1.203,0.306c-0.901,0-1.565-0.254-1.992-0.762
	c-0.428-0.508-0.641-1.298-0.641-2.37c0-0.504,0.072-0.95,0.215-1.338c0.145-0.388,0.35-0.712,0.617-0.972
	c0.268-0.26,0.588-0.458,0.963-0.594c0.375-0.136,0.795-0.204,1.258-0.204c0.167,0,0.316,0.004,0.448,0.012s0.253,0.02,0.364,0.036
	c0.112,0.016,0.219,0.038,0.318,0.066s0.209,0.058,0.328,0.09v-1.704h-1.008V-192.897z M-730.005-185.157
	c0.486,0,0.869-0.126,1.147-0.378c0.279-0.252,0.471-0.63,0.574-1.134v-2.784c-0.176-0.12-0.373-0.208-0.592-0.264
	c-0.219-0.056-0.508-0.084-0.867-0.084c-0.637,0-1.14,0.186-1.506,0.558c-0.367,0.372-0.551,0.958-0.551,1.758
	c0,0.328,0.029,0.634,0.09,0.918c0.06,0.284,0.159,0.53,0.299,0.738s0.324,0.372,0.557,0.492
	C-730.623-185.217-730.34-185.157-730.005-185.157z"/>
<path d="M-713.799-189.573c-0.185-0.064-0.383-0.118-0.595-0.162s-0.422-0.066-0.63-0.066c-0.784,0-1.368,0.185-1.752,0.554
	s-0.576,0.955-0.576,1.756c0,0.353,0.057,0.668,0.168,0.945c0.112,0.277,0.271,0.511,0.48,0.704c0.207,0.193,0.457,0.341,0.75,0.445
	c0.291,0.104,0.613,0.156,0.966,0.156c0.376,0,0.741-0.065,1.099-0.195c0.355-0.13,0.653-0.301,0.893-0.513l0.421,0.696
	c-0.112,0.096-0.252,0.196-0.421,0.3c-0.168,0.104-0.361,0.202-0.581,0.294c-0.22,0.092-0.464,0.166-0.732,0.222
	c-0.269,0.056-0.558,0.084-0.87,0.084c-0.52,0-0.978-0.074-1.373-0.222c-0.396-0.148-0.727-0.36-0.99-0.636
	c-0.265-0.276-0.465-0.608-0.601-0.996s-0.204-0.818-0.204-1.29c0-0.504,0.07-0.952,0.211-1.344c0.139-0.392,0.342-0.72,0.605-0.984
	c0.264-0.264,0.584-0.466,0.96-0.606c0.376-0.14,0.796-0.21,1.26-0.21c0.593,0,1.074,0.052,1.446,0.156s0.686,0.22,0.941,0.348
	l-0.012,0.036v1.668h-0.863V-189.573z"/>
<path d="M-711.184-187.497c0-0.968,0.252-1.734,0.756-2.298s1.225-0.846,2.16-0.846c0.504,0,0.938,0.082,1.302,0.246
	s0.666,0.386,0.906,0.666c0.239,0.28,0.418,0.612,0.534,0.996c0.115,0.384,0.174,0.796,0.174,1.236c0,0.48-0.064,0.914-0.191,1.302
	c-0.129,0.388-0.316,0.718-0.564,0.99s-0.555,0.482-0.918,0.63c-0.364,0.148-0.778,0.222-1.242,0.222
	c-0.496,0-0.928-0.082-1.296-0.246s-0.673-0.386-0.912-0.666c-0.24-0.28-0.419-0.612-0.534-0.996
	C-711.126-186.645-711.184-187.057-711.184-187.497z M-710.188-187.497c0,0.28,0.033,0.56,0.102,0.84
	c0.068,0.28,0.178,0.532,0.329,0.756c0.151,0.224,0.349,0.404,0.592,0.54c0.243,0.136,0.54,0.204,0.892,0.204
	c0.638,0,1.118-0.198,1.441-0.594c0.322-0.396,0.484-0.978,0.484-1.746c0-0.288-0.034-0.57-0.102-0.846
	c-0.068-0.276-0.18-0.526-0.335-0.75c-0.155-0.224-0.354-0.404-0.599-0.54c-0.243-0.136-0.54-0.204-0.891-0.204
	c-0.639,0-1.117,0.196-1.436,0.588C-710.028-188.857-710.188-188.273-710.188-187.497z"/>
<path d="M-700.492-192.897h1.956v6.348c0,0.072,0.004,0.162,0.013,0.27c0.008,0.108,0.018,0.222,0.029,0.342
	s0.025,0.238,0.042,0.354c0.017,0.116,0.032,0.218,0.048,0.306h0.805v0.78h-1.607l-0.121-0.924h-0.048
	c-0.175,0.304-0.437,0.558-0.784,0.762c-0.347,0.204-0.748,0.306-1.203,0.306c-0.901,0-1.565-0.254-1.992-0.762
	c-0.428-0.508-0.641-1.298-0.641-2.37c0-0.504,0.072-0.95,0.215-1.338c0.145-0.388,0.35-0.712,0.617-0.972
	c0.268-0.26,0.588-0.458,0.963-0.594c0.375-0.136,0.795-0.204,1.258-0.204c0.167,0,0.316,0.004,0.448,0.012s0.253,0.02,0.364,0.036
	c0.112,0.016,0.219,0.038,0.318,0.066s0.209,0.058,0.328,0.09v-1.704h-1.008V-192.897z M-701.206-185.157
	c0.486,0,0.869-0.126,1.147-0.378c0.279-0.252,0.471-0.63,0.574-1.134v-2.784c-0.176-0.12-0.373-0.208-0.592-0.264
	c-0.219-0.056-0.508-0.084-0.867-0.084c-0.637,0-1.14,0.186-1.506,0.558c-0.367,0.372-0.551,0.958-0.551,1.758
	c0,0.328,0.029,0.634,0.09,0.918c0.06,0.284,0.159,0.53,0.299,0.738s0.324,0.372,0.557,0.492
	C-701.824-185.217-701.541-185.157-701.206-185.157z"/>
<path d="M-691.12-185.253c-0.144,0.128-0.313,0.248-0.511,0.36c-0.195,0.112-0.41,0.208-0.642,0.288s-0.474,0.142-0.726,0.186
	s-0.506,0.066-0.762,0.066c-0.48,0-0.904-0.074-1.272-0.222s-0.677-0.36-0.924-0.636c-0.248-0.276-0.437-0.606-0.563-0.99
	c-0.129-0.384-0.193-0.816-0.193-1.296c0-0.504,0.07-0.952,0.211-1.344c0.14-0.392,0.342-0.72,0.605-0.984
	c0.264-0.264,0.584-0.466,0.961-0.606c0.375-0.14,0.795-0.21,1.26-0.21c0.336,0,0.668,0.044,0.996,0.132
	c0.327,0.088,0.617,0.254,0.869,0.498c0.252,0.244,0.446,0.58,0.582,1.008c0.137,0.428,0.184,0.982,0.145,1.662h-4.633
	c0,0.72,0.193,1.258,0.581,1.614s0.903,0.534,1.55,0.534c0.215,0,0.429-0.026,0.641-0.078c0.211-0.052,0.412-0.114,0.604-0.186
	c0.192-0.072,0.361-0.152,0.51-0.24c0.146-0.088,0.261-0.168,0.341-0.24L-691.12-185.253z M-693.646-189.849
	c-0.264,0-0.513,0.028-0.748,0.084c-0.235,0.056-0.442,0.15-0.622,0.282c-0.179,0.132-0.327,0.304-0.442,0.516
	c-0.115,0.212-0.189,0.474-0.221,0.786h3.719c-0.039-0.528-0.209-0.938-0.508-1.23S-693.16-189.849-693.646-189.849z"/>
<rect x="-743.545" y="-164.055" fill="#009444" width="21.5" height="21.5"/>
<path fill="#FFFFFF" d="M-739.406-149.658v-0.805h2.088v-4.392h-2.088v-0.804h3.035v5.195h2.041v0.805H-739.406z M-737.654-157.363
	c0-0.215,0.072-0.401,0.216-0.558c0.144-0.155,0.328-0.233,0.552-0.233c0.232,0,0.426,0.078,0.582,0.233
	c0.156,0.156,0.234,0.343,0.234,0.558c0,0.209-0.078,0.385-0.234,0.529c-0.156,0.143-0.35,0.215-0.582,0.215
	c-0.224,0-0.408-0.072-0.552-0.215C-737.582-156.979-737.654-157.154-737.654-157.363z"/>
<path fill="#FFFFFF" d="M-729.291-158.059h1.956v6.348c0,0.072,0.004,0.162,0.013,0.27c0.008,0.109,0.018,0.223,0.029,0.343
	s0.025,0.238,0.042,0.354c0.017,0.115,0.032,0.217,0.048,0.306h0.805v0.78h-1.607l-0.121-0.924h-0.048
	c-0.175,0.303-0.437,0.557-0.784,0.762c-0.347,0.203-0.748,0.306-1.203,0.306c-0.901,0-1.565-0.254-1.992-0.763
	c-0.428-0.508-0.641-1.297-0.641-2.369c0-0.504,0.072-0.95,0.215-1.338c0.145-0.389,0.35-0.713,0.617-0.973s0.588-0.457,0.963-0.594
	c0.375-0.136,0.795-0.204,1.258-0.204c0.167,0,0.316,0.005,0.448,0.013s0.253,0.02,0.364,0.035c0.112,0.017,0.219,0.039,0.318,0.066
	s0.209,0.059,0.328,0.09v-1.704h-1.008V-158.059z M-730.005-150.318c0.486,0,0.869-0.127,1.147-0.379
	c0.279-0.252,0.471-0.629,0.574-1.133v-2.785c-0.176-0.119-0.373-0.207-0.592-0.264c-0.219-0.056-0.508-0.084-0.867-0.084
	c-0.637,0-1.14,0.186-1.506,0.559c-0.367,0.371-0.551,0.957-0.551,1.758c0,0.328,0.029,0.634,0.09,0.918
	c0.06,0.283,0.159,0.529,0.299,0.738c0.14,0.207,0.324,0.371,0.557,0.492C-730.623-150.379-730.34-150.318-730.005-150.318z"/>
<path d="M-713.799-154.734c-0.185-0.064-0.383-0.118-0.595-0.162s-0.422-0.066-0.63-0.066c-0.784,0-1.368,0.185-1.752,0.554
	s-0.576,0.954-0.576,1.757c0,0.353,0.057,0.668,0.168,0.944c0.112,0.276,0.271,0.511,0.48,0.704c0.207,0.192,0.457,0.341,0.75,0.445
	c0.291,0.104,0.613,0.156,0.966,0.156c0.376,0,0.741-0.065,1.099-0.195c0.355-0.131,0.653-0.301,0.893-0.514l0.421,0.697
	c-0.112,0.096-0.252,0.195-0.421,0.299c-0.168,0.104-0.361,0.203-0.581,0.295s-0.464,0.166-0.732,0.222s-0.558,0.084-0.87,0.084
	c-0.52,0-0.978-0.074-1.373-0.222c-0.396-0.148-0.727-0.36-0.99-0.637c-0.265-0.275-0.465-0.607-0.601-0.996
	c-0.136-0.388-0.204-0.817-0.204-1.289c0-0.504,0.07-0.953,0.211-1.345c0.139-0.392,0.342-0.72,0.605-0.983s0.584-0.467,0.96-0.606
	s0.796-0.21,1.26-0.21c0.593,0,1.074,0.053,1.446,0.156s0.686,0.22,0.941,0.348l-0.012,0.036v1.668h-0.863V-154.734z"/>
<path d="M-711.184-152.658c0-0.969,0.252-1.734,0.756-2.299c0.504-0.563,1.225-0.846,2.16-0.846c0.504,0,0.938,0.082,1.302,0.246
	s0.666,0.387,0.906,0.666c0.239,0.28,0.418,0.611,0.534,0.996c0.115,0.384,0.174,0.796,0.174,1.236c0,0.479-0.064,0.914-0.191,1.301
	c-0.129,0.389-0.316,0.719-0.564,0.99c-0.248,0.272-0.555,0.482-0.918,0.631c-0.364,0.147-0.778,0.222-1.242,0.222
	c-0.496,0-0.928-0.082-1.296-0.246s-0.673-0.386-0.912-0.666c-0.24-0.28-0.419-0.612-0.534-0.996
	C-711.126-151.807-711.184-152.219-711.184-152.658z M-710.188-152.658c0,0.279,0.033,0.56,0.102,0.84
	c0.068,0.279,0.178,0.531,0.329,0.756c0.151,0.224,0.349,0.404,0.592,0.54s0.54,0.204,0.892,0.204c0.638,0,1.118-0.198,1.441-0.594
	c0.322-0.396,0.484-0.979,0.484-1.746c0-0.289-0.034-0.57-0.102-0.847c-0.068-0.276-0.18-0.526-0.335-0.75s-0.354-0.403-0.599-0.54
	c-0.243-0.136-0.54-0.203-0.891-0.203c-0.639,0-1.117,0.195-1.436,0.588C-710.028-154.019-710.188-153.435-710.188-152.658z"/>
<path d="M-700.492-158.059h1.956v6.348c0,0.072,0.004,0.162,0.013,0.27c0.008,0.109,0.018,0.223,0.029,0.343
	s0.025,0.238,0.042,0.354c0.017,0.115,0.032,0.217,0.048,0.306h0.805v0.78h-1.607l-0.121-0.924h-0.048
	c-0.175,0.303-0.437,0.557-0.784,0.762c-0.347,0.203-0.748,0.306-1.203,0.306c-0.901,0-1.565-0.254-1.992-0.763
	c-0.428-0.508-0.641-1.297-0.641-2.369c0-0.504,0.072-0.95,0.215-1.338c0.145-0.389,0.35-0.713,0.617-0.973s0.588-0.457,0.963-0.594
	c0.375-0.136,0.795-0.204,1.258-0.204c0.167,0,0.316,0.005,0.448,0.013s0.253,0.02,0.364,0.035c0.112,0.017,0.219,0.039,0.318,0.066
	s0.209,0.059,0.328,0.09v-1.704h-1.008V-158.059z M-701.206-150.318c0.486,0,0.869-0.127,1.147-0.379
	c0.279-0.252,0.471-0.629,0.574-1.133v-2.785c-0.176-0.119-0.373-0.207-0.592-0.264c-0.219-0.056-0.508-0.084-0.867-0.084
	c-0.637,0-1.14,0.186-1.506,0.559c-0.367,0.371-0.551,0.957-0.551,1.758c0,0.328,0.029,0.634,0.09,0.918
	c0.06,0.283,0.159,0.529,0.299,0.738c0.14,0.207,0.324,0.371,0.557,0.492C-701.824-150.379-701.541-150.318-701.206-150.318z"/>
<path d="M-691.12-150.414c-0.144,0.127-0.313,0.248-0.511,0.359c-0.195,0.112-0.41,0.208-0.642,0.288s-0.474,0.142-0.726,0.187
	c-0.252,0.043-0.506,0.065-0.762,0.065c-0.48,0-0.904-0.074-1.272-0.222c-0.368-0.148-0.677-0.36-0.924-0.637
	c-0.248-0.275-0.437-0.605-0.563-0.99c-0.129-0.383-0.193-0.815-0.193-1.295c0-0.504,0.07-0.953,0.211-1.345
	c0.14-0.392,0.342-0.72,0.605-0.983s0.584-0.467,0.961-0.606c0.375-0.14,0.795-0.21,1.26-0.21c0.336,0,0.668,0.044,0.996,0.132
	c0.327,0.089,0.617,0.255,0.869,0.498c0.252,0.244,0.446,0.58,0.582,1.009c0.137,0.428,0.184,0.981,0.145,1.661h-4.633
	c0,0.72,0.193,1.259,0.581,1.614s0.903,0.534,1.55,0.534c0.215,0,0.429-0.026,0.641-0.078c0.211-0.052,0.412-0.114,0.604-0.187
	c0.192-0.072,0.361-0.151,0.51-0.24c0.146-0.088,0.261-0.168,0.341-0.239L-691.12-150.414z M-693.646-155.011
	c-0.264,0-0.513,0.028-0.748,0.084s-0.442,0.149-0.622,0.282c-0.179,0.132-0.327,0.305-0.442,0.516
	c-0.115,0.213-0.189,0.475-0.221,0.786h3.719c-0.039-0.528-0.209-0.938-0.508-1.229
	C-692.768-154.865-693.16-155.011-693.646-155.011z"/>
<rect x="-743.545" y="-126.361" fill="#2BB673" width="21.5" height="21.5"/>
<path fill="#FFFFFF" d="M-739.406-111.965v-0.805h2.088v-4.392h-2.088v-0.804h3.035v5.195h2.041v0.805H-739.406z M-737.654-119.67
	c0-0.215,0.072-0.401,0.216-0.558c0.144-0.155,0.328-0.233,0.552-0.233c0.232,0,0.426,0.078,0.582,0.233
	c0.156,0.156,0.234,0.343,0.234,0.558c0,0.209-0.078,0.385-0.234,0.529c-0.156,0.143-0.35,0.215-0.582,0.215
	c-0.224,0-0.408-0.072-0.552-0.215C-737.582-119.285-737.654-119.461-737.654-119.67z"/>
<path fill="#FFFFFF" d="M-729.291-120.365h1.956v6.348c0,0.072,0.004,0.162,0.013,0.27c0.008,0.109,0.018,0.223,0.029,0.343
	s0.025,0.238,0.042,0.354c0.017,0.115,0.032,0.217,0.048,0.306h0.805v0.78h-1.607l-0.121-0.924h-0.048
	c-0.175,0.303-0.437,0.557-0.784,0.762c-0.347,0.203-0.748,0.306-1.203,0.306c-0.901,0-1.565-0.254-1.992-0.763
	c-0.428-0.508-0.641-1.297-0.641-2.369c0-0.504,0.072-0.95,0.215-1.338c0.145-0.389,0.35-0.713,0.617-0.973s0.588-0.457,0.963-0.594
	c0.375-0.136,0.795-0.204,1.258-0.204c0.167,0,0.316,0.005,0.448,0.013s0.253,0.02,0.364,0.035c0.112,0.017,0.219,0.039,0.318,0.066
	s0.209,0.059,0.328,0.09v-1.704h-1.008V-120.365z M-730.005-112.625c0.486,0,0.869-0.127,1.147-0.379
	c0.279-0.252,0.471-0.629,0.574-1.133v-2.785c-0.176-0.119-0.373-0.207-0.592-0.264c-0.219-0.056-0.508-0.084-0.867-0.084
	c-0.637,0-1.14,0.186-1.506,0.559c-0.367,0.371-0.551,0.957-0.551,1.758c0,0.328,0.029,0.634,0.09,0.918
	c0.06,0.283,0.159,0.529,0.299,0.738c0.14,0.207,0.324,0.371,0.557,0.492C-730.623-112.686-730.34-112.625-730.005-112.625z"/>
<path d="M-713.799-117.041c-0.185-0.064-0.383-0.118-0.595-0.162s-0.422-0.066-0.63-0.066c-0.784,0-1.368,0.185-1.752,0.554
	s-0.576,0.954-0.576,1.757c0,0.353,0.057,0.668,0.168,0.944c0.112,0.276,0.271,0.511,0.48,0.704c0.207,0.192,0.457,0.341,0.75,0.445
	c0.291,0.104,0.613,0.156,0.966,0.156c0.376,0,0.741-0.065,1.099-0.195c0.355-0.131,0.653-0.301,0.893-0.514l0.421,0.697
	c-0.112,0.096-0.252,0.195-0.421,0.299c-0.168,0.104-0.361,0.203-0.581,0.295s-0.464,0.166-0.732,0.222s-0.558,0.084-0.87,0.084
	c-0.52,0-0.978-0.074-1.373-0.222c-0.396-0.148-0.727-0.36-0.99-0.637c-0.265-0.275-0.465-0.607-0.601-0.996
	c-0.136-0.388-0.204-0.817-0.204-1.289c0-0.504,0.07-0.953,0.211-1.345c0.139-0.392,0.342-0.72,0.605-0.983s0.584-0.467,0.96-0.606
	s0.796-0.21,1.26-0.21c0.593,0,1.074,0.053,1.446,0.156s0.686,0.22,0.941,0.348l-0.012,0.036v1.668h-0.863V-117.041z"/>
<path d="M-711.184-114.965c0-0.969,0.252-1.734,0.756-2.299c0.504-0.563,1.225-0.846,2.16-0.846c0.504,0,0.938,0.082,1.302,0.246
	s0.666,0.387,0.906,0.666c0.239,0.28,0.418,0.611,0.534,0.996c0.115,0.384,0.174,0.796,0.174,1.236c0,0.479-0.064,0.914-0.191,1.301
	c-0.129,0.389-0.316,0.719-0.564,0.99c-0.248,0.272-0.555,0.482-0.918,0.631c-0.364,0.147-0.778,0.222-1.242,0.222
	c-0.496,0-0.928-0.082-1.296-0.246s-0.673-0.386-0.912-0.666c-0.24-0.28-0.419-0.612-0.534-0.996
	C-711.126-114.113-711.184-114.525-711.184-114.965z M-710.188-114.965c0,0.279,0.033,0.56,0.102,0.84
	c0.068,0.279,0.178,0.531,0.329,0.756c0.151,0.224,0.349,0.404,0.592,0.54s0.54,0.204,0.892,0.204c0.638,0,1.118-0.198,1.441-0.594
	c0.322-0.396,0.484-0.979,0.484-1.746c0-0.289-0.034-0.57-0.102-0.847c-0.068-0.276-0.18-0.526-0.335-0.75s-0.354-0.403-0.599-0.54
	c-0.243-0.136-0.54-0.203-0.891-0.203c-0.639,0-1.117,0.195-1.436,0.588C-710.028-116.325-710.188-115.741-710.188-114.965z"/>
<path d="M-700.492-120.365h1.956v6.348c0,0.072,0.004,0.162,0.013,0.27c0.008,0.109,0.018,0.223,0.029,0.343
	s0.025,0.238,0.042,0.354c0.017,0.115,0.032,0.217,0.048,0.306h0.805v0.78h-1.607l-0.121-0.924h-0.048
	c-0.175,0.303-0.437,0.557-0.784,0.762c-0.347,0.203-0.748,0.306-1.203,0.306c-0.901,0-1.565-0.254-1.992-0.763
	c-0.428-0.508-0.641-1.297-0.641-2.369c0-0.504,0.072-0.95,0.215-1.338c0.145-0.389,0.35-0.713,0.617-0.973s0.588-0.457,0.963-0.594
	c0.375-0.136,0.795-0.204,1.258-0.204c0.167,0,0.316,0.005,0.448,0.013s0.253,0.02,0.364,0.035c0.112,0.017,0.219,0.039,0.318,0.066
	s0.209,0.059,0.328,0.09v-1.704h-1.008V-120.365z M-701.206-112.625c0.486,0,0.869-0.127,1.147-0.379
	c0.279-0.252,0.471-0.629,0.574-1.133v-2.785c-0.176-0.119-0.373-0.207-0.592-0.264c-0.219-0.056-0.508-0.084-0.867-0.084
	c-0.637,0-1.14,0.186-1.506,0.559c-0.367,0.371-0.551,0.957-0.551,1.758c0,0.328,0.029,0.634,0.09,0.918
	c0.06,0.283,0.159,0.529,0.299,0.738c0.14,0.207,0.324,0.371,0.557,0.492C-701.824-112.686-701.541-112.625-701.206-112.625z"/>
<path d="M-691.12-112.721c-0.144,0.127-0.313,0.248-0.511,0.359c-0.195,0.112-0.41,0.208-0.642,0.288s-0.474,0.142-0.726,0.187
	c-0.252,0.043-0.506,0.065-0.762,0.065c-0.48,0-0.904-0.074-1.272-0.222c-0.368-0.148-0.677-0.36-0.924-0.637
	c-0.248-0.275-0.437-0.605-0.563-0.99c-0.129-0.383-0.193-0.815-0.193-1.295c0-0.504,0.07-0.953,0.211-1.345
	c0.14-0.392,0.342-0.72,0.605-0.983s0.584-0.467,0.961-0.606c0.375-0.14,0.795-0.21,1.26-0.21c0.336,0,0.668,0.044,0.996,0.132
	c0.327,0.089,0.617,0.255,0.869,0.498c0.252,0.244,0.446,0.58,0.582,1.009c0.137,0.428,0.184,0.981,0.145,1.661h-4.633
	c0,0.72,0.193,1.259,0.581,1.614s0.903,0.534,1.55,0.534c0.215,0,0.429-0.026,0.641-0.078c0.211-0.052,0.412-0.114,0.604-0.187
	c0.192-0.072,0.361-0.151,0.51-0.24c0.146-0.088,0.261-0.168,0.341-0.239L-691.12-112.721z M-693.646-117.317
	c-0.264,0-0.513,0.028-0.748,0.084s-0.442,0.149-0.622,0.282c-0.179,0.132-0.327,0.305-0.442,0.516
	c-0.115,0.213-0.189,0.475-0.221,0.786h3.719c-0.039-0.528-0.209-0.938-0.508-1.229
	C-692.768-117.172-693.16-117.317-693.646-117.317z"/>
<rect x="-724.5" y="-247.874" fill="#C92750" width="9.039" height="8.727"/>
<rect x="-701.145" y="-247.874" fill="#A9CF38" width="8.862" height="8.862"/>
<rect x="-712.996" y="-248.118" fill="#E6DC74" width="9" height="9"/>
<g>
	<path fill="#FFFFFF" d="M-613.036-260.474h0.863c0.384,0,0.792,0.084,0.792,0.576c0,0.504-0.456,0.576-0.792,0.576h-2.927
		c-0.336,0-0.791-0.072-0.791-0.576c0-0.492,0.408-0.576,0.791-0.576h0.912v-4.162h-0.912c-0.336,0-0.791-0.072-0.791-0.576
		c0-0.492,0.408-0.576,0.791-0.576h1.212c0.659,0,0.852,0.12,0.852,0.803V-260.474z M-614.775-268.114
		c0-0.408,0.229-0.54,0.539-0.54h0.66c0.312,0,0.54,0.132,0.54,0.54v0.552c0,0.408-0.228,0.54-0.54,0.54h-0.66
		c-0.311,0-0.539-0.132-0.539-0.54V-268.114z"/>
	<path fill="#FFFFFF" d="M-604.66-265.787c0.396,0,0.719,0.216,1.139,0.636l0.192,0.204v-2.422c0-0.396,0.084-0.792,0.575-0.792
		c0.492,0,0.576,0.396,0.576,0.792v7.244c0,0.396-0.084,0.804-0.576,0.804c-0.455,0-0.575-0.384-0.575-0.768v-0.072l-0.252,0.251
		c-0.36,0.336-0.756,0.588-1.104,0.588h-1.115c-0.384,0-0.815-0.264-0.983-0.408l-0.396-0.336c-0.479-0.408-0.635-0.72-0.635-1.331
		v-2.315c0-0.612,0.156-0.923,0.635-1.331l0.396-0.336c0.359-0.312,0.623-0.408,1.104-0.408H-604.66z M-606.664-261.854
		c0,0.324,0,0.732,0.181,0.875l0.348,0.276c0.144,0.12,0.288,0.228,0.432,0.228h0.815c0.145,0,0.348-0.096,0.564-0.288l0.659-0.563
		c0.168-0.144,0.336-0.288,0.336-0.504v-1.451c0-0.216-0.168-0.359-0.336-0.503l-0.659-0.564c-0.217-0.192-0.42-0.288-0.564-0.288
		h-0.815c-0.144,0-0.288,0.108-0.432,0.228l-0.348,0.275c-0.181,0.144-0.181,0.552-0.181,0.876V-261.854z"/>
</g>
<path d="M-590.535-263.113c0-0.708,0.132-1.055,0.684-1.511l0.852-0.708c0.539-0.444,0.815-0.456,1.486-0.456h1.824
	c0.383,0,0.791,0.084,0.791,0.576c0,0.503-0.456,0.576-0.791,0.576h-2.027c-0.229,0-0.456,0.12-0.66,0.288l-0.695,0.588
	c-0.18,0.144-0.312,0.264-0.312,0.492v1.427c0,0.228,0.133,0.348,0.312,0.492l0.695,0.587c0.204,0.168,0.432,0.288,0.66,0.288h2.027
	c0.335,0,0.791,0.072,0.791,0.576c0,0.492-0.408,0.576-0.791,0.576h-1.824c-0.671,0-0.947-0.012-1.486-0.456l-0.852-0.708
	c-0.552-0.456-0.684-0.803-0.684-1.511V-263.113z"/>
<path d="M-581.896-263.64c0-0.768,0.156-1.032,0.732-1.5c0.563-0.468,0.827-0.647,1.631-0.647h0.912c0.803,0,1.066,0.18,1.631,0.647
	c0.575,0.468,0.731,0.732,0.731,1.5v2.17c0,0.756-0.192,1.043-0.792,1.547s-0.84,0.6-1.57,0.6h-0.912
	c-0.731,0-0.971-0.096-1.571-0.6c-0.6-0.504-0.792-0.792-0.792-1.547V-263.64z M-580.744-261.47c0,0.24,0.084,0.396,0.42,0.684
	c0.252,0.216,0.432,0.312,0.791,0.312h0.912c0.359,0,0.539-0.096,0.791-0.312c0.336-0.288,0.42-0.443,0.42-0.684v-2.17
	c0-0.24-0.084-0.396-0.42-0.684c-0.252-0.216-0.432-0.312-0.791-0.312h-0.912c-0.359,0-0.539,0.096-0.791,0.312
	c-0.336,0.288-0.42,0.444-0.42,0.684V-261.47z"/>
<path d="M-570.102-265.787c0.396,0,0.719,0.216,1.139,0.636l0.192,0.204v-2.422c0-0.396,0.084-0.792,0.575-0.792
	c0.492,0,0.576,0.396,0.576,0.792v7.244c0,0.396-0.084,0.804-0.576,0.804c-0.455,0-0.575-0.384-0.575-0.768v-0.072l-0.252,0.251
	c-0.36,0.336-0.756,0.588-1.104,0.588h-1.115c-0.384,0-0.815-0.264-0.983-0.408l-0.396-0.336c-0.479-0.408-0.635-0.72-0.635-1.331
	v-2.315c0-0.612,0.156-0.923,0.635-1.331l0.396-0.336c0.359-0.312,0.623-0.408,1.104-0.408H-570.102z M-572.105-261.854
	c0,0.324,0,0.732,0.181,0.875l0.348,0.276c0.144,0.12,0.288,0.228,0.432,0.228h0.815c0.145,0,0.348-0.096,0.564-0.288l0.659-0.563
	c0.168-0.144,0.336-0.288,0.336-0.504v-1.451c0-0.216-0.168-0.359-0.336-0.503l-0.659-0.564c-0.217-0.192-0.42-0.288-0.564-0.288
	h-0.815c-0.144,0-0.288,0.108-0.432,0.228l-0.348,0.275c-0.181,0.144-0.181,0.552-0.181,0.876V-261.854z"/>
<path d="M-562.506-259.323c-0.479,0-0.672,0-1.031-0.312l-0.492-0.432c-0.455-0.408-0.588-0.671-0.588-1.295v-2.219
	c0-0.611,0.084-0.971,0.564-1.379l0.408-0.348c0.539-0.468,0.803-0.479,1.271-0.479h1.056c0.563,0,0.828,0.06,1.271,0.419
	l0.468,0.372c0.527,0.42,0.6,0.863,0.6,1.499v0.924c0,0.659-0.108,0.852-0.792,0.852h-3.693v0.384c0,0.108,0.084,0.251,0.168,0.335
	l0.287,0.312c0.156,0.168,0.385,0.216,0.768,0.216h2.471c0.385,0,0.792,0.084,0.792,0.576c0,0.504-0.456,0.576-0.792,0.576H-562.506
	z M-563.465-262.873h3.334v-0.696c0-0.216,0.012-0.396-0.145-0.54l-0.443-0.384c-0.145-0.132-0.371-0.144-0.552-0.144h-0.972
	c-0.215,0-0.396,0-0.588,0.132l-0.395,0.288c-0.145,0.108-0.24,0.192-0.24,0.528V-262.873z"/>
<g>
	<rect x="-865.917" y="-68.25" fill="none" width="58.667" height="36.25"/>
	<text transform="matrix(1 0 0 1 -865.9165 -59.4062)"><tspan x="0" y="0" font-family="'OCRAStd'" font-size="12">&lt;ID</tspan><tspan x="0" y="11" font-family="'OCRAStd'" font-size="12">code&gt;</tspan></text>
	<rect x="-865.917" y="-68.25" fill="none" width="58.667" height="36.25"/>
	<text transform="matrix(1 0 0 1 -865.9165 -59.4062)"><tspan x="0" y="0" font-family="'OCRAStd'" font-size="12">&lt;ID</tspan><tspan x="0" y="11" font-family="'OCRAStd'" font-size="12">code&gt;</tspan></text>
	<rect x="-865.917" y="-68.25" fill="none" width="58.667" height="36.25"/>
	<text transform="matrix(1 0 0 1 -865.9165 -59.4062)"><tspan x="0" y="0" font-family="'OCRAStd'" font-size="12">&lt;ID</tspan><tspan x="0" y="11" font-family="'OCRAStd'" font-size="12">code&gt;</tspan></text>
	<rect x="-865.917" y="-68.25" fill="none" width="58.667" height="36.25"/>
	<text transform="matrix(1 0 0 1 -865.9165 -59.4062)"><tspan x="0" y="0" font-family="'OCRAStd'" font-size="12">&lt;ID</tspan><tspan x="0" y="11" font-family="'OCRAStd'" font-size="12">code&gt;</tspan></text>
</g>
<g>
	<rect x="-781.667" y="-68.25" fill="none" width="58.667" height="36.25"/>
	<text transform="matrix(1 0 0 1 -781.6665 -59.7773)"><tspan x="0" y="0" font-family="'Seravek-Medium'" font-size="12">&lt;ID</tspan><tspan x="0" y="10" font-family="'Seravek-Medium'" font-size="12">code&gt;</tspan></text>
	<rect x="-781.667" y="-68.25" fill="none" width="58.667" height="36.25"/>
	<text transform="matrix(1 0 0 1 -781.6665 -59.7773)"><tspan x="0" y="0" font-family="'Seravek-Medium'" font-size="12">&lt;ID</tspan><tspan x="0" y="10" font-family="'Seravek-Medium'" font-size="12">code&gt;</tspan></text>
	<rect x="-781.667" y="-68.25" fill="none" width="58.667" height="36.25"/>
	<text transform="matrix(1 0 0 1 -781.6665 -59.7773)"><tspan x="0" y="0" font-family="'Seravek-Medium'" font-size="12">&lt;ID</tspan><tspan x="0" y="10" font-family="'Seravek-Medium'" font-size="12">code&gt;</tspan></text>
	<rect x="-781.667" y="-68.25" fill="none" width="58.667" height="36.25"/>
	<text transform="matrix(1 0 0 1 -781.6665 -59.7773)"><tspan x="0" y="0" font-family="'Seravek-Medium'" font-size="12">&lt;ID</tspan><tspan x="0" y="10" font-family="'Seravek-Medium'" font-size="12">code&gt;</tspan></text>
</g>
<g>
	<rect x="-717.416" y="-68.25" fill="none" width="50.541" height="22.5"/>
	<text transform="matrix(1 0 0 1 -717.416 -59.7305)" font-family="'Myriad-Roman'" font-size="12">:IDcode</text>
	<rect x="-717.416" y="-68.25" fill="none" width="50.541" height="22.5"/>
	<text transform="matrix(1 0 0 1 -717.416 -59.7305)" font-family="'Myriad-Roman'" font-size="12">:IDcode</text>
	<rect x="-717.416" y="-68.25" fill="none" width="50.541" height="22.5"/>
	<text transform="matrix(1 0 0 1 -717.416 -59.7305)" font-family="'Myriad-Roman'" font-size="12">:IDcode</text>
	<rect x="-717.416" y="-68.25" fill="none" width="50.541" height="22.5"/>
	<text transform="matrix(1 0 0 1 -717.416 -59.7305)" font-family="'Myriad-Roman'" font-size="12">:IDcode</text>
</g>
<g>
	<rect x="-640.791" y="-68.25" fill="none" width="50.541" height="22.5"/>
	<text transform="matrix(1 0 0 1 -640.791 -59.7305)" font-family="'Myriad-Roman'" font-size="12">IDcode</text>
	<rect x="-640.791" y="-68.25" fill="none" width="50.541" height="22.5"/>
	<text transform="matrix(1 0 0 1 -640.791 -59.7305)" font-family="'Myriad-Roman'" font-size="12">IDcode</text>
	<rect x="-640.791" y="-68.25" fill="none" width="50.541" height="22.5"/>
	<text transform="matrix(1 0 0 1 -640.791 -59.7305)" font-family="'Myriad-Roman'" font-size="12">IDcode</text>
	<rect x="-640.791" y="-68.25" fill="none" width="50.541" height="22.5"/>
	<text transform="matrix(1 0 0 1 -640.791 -59.7305)" font-family="'Myriad-Roman'" font-size="12">IDcode</text>
</g>
<g>
	<rect x="-865.917" y="-22.125" fill="none" width="58.667" height="36.25"/>
	<text transform="matrix(1 0 0 1 -865.9165 -13.2812)"><tspan x="0" y="0" font-family="'OCRAStd'" font-size="12">\\ID</tspan><tspan x="0" y="11" font-family="'OCRAStd'" font-size="12">code</tspan></text>
	<rect x="-865.917" y="-22.125" fill="none" width="58.667" height="36.25"/>
	<text transform="matrix(1 0 0 1 -865.9165 -13.2812)"><tspan x="0" y="0" font-family="'OCRAStd'" font-size="12">\\ID</tspan><tspan x="0" y="11" font-family="'OCRAStd'" font-size="12">code</tspan></text>
	<rect x="-865.917" y="-22.125" fill="none" width="58.667" height="36.25"/>
	<text transform="matrix(1 0 0 1 -865.9165 -13.2812)"><tspan x="0" y="0" font-family="'OCRAStd'" font-size="12">\\ID</tspan><tspan x="0" y="11" font-family="'OCRAStd'" font-size="12">code</tspan></text>
	<rect x="-865.917" y="-22.125" fill="none" width="58.667" height="36.25"/>
	<text transform="matrix(1 0 0 1 -865.9165 -13.2812)"><tspan x="0" y="0" font-family="'OCRAStd'" font-size="12">\\ID</tspan><tspan x="0" y="11" font-family="'OCRAStd'" font-size="12">code</tspan></text>
</g>
<g>
	<rect x="-865.917" y="23.625" fill="none" width="58.667" height="18.125"/>
	<text transform="matrix(1 0 0 1 -865.9165 32.4688)" font-family="'OCRAStd'" font-size="12">IDcode</text>
	<rect x="-865.917" y="23.625" fill="none" width="58.667" height="18.125"/>
	<text transform="matrix(1 0 0 1 -865.9165 32.4688)" font-family="'OCRAStd'" font-size="12">IDcode</text>
	<rect x="-865.917" y="23.625" fill="none" width="58.667" height="18.125"/>
	<text transform="matrix(1 0 0 1 -865.9165 32.4688)" font-family="'OCRAStd'" font-size="12">IDcode</text>
	<rect x="-865.917" y="23.625" fill="none" width="58.667" height="18.125"/>
	<text transform="matrix(1 0 0 1 -865.9165 32.4688)" font-family="'OCRAStd'" font-size="12">IDcode</text>
</g>
<rect x="-583.545" y="-192.831" fill="#C92750" width="21.5" height="21.5"/>
<path fill="#FFFFFF" d="M-579.406-178.434v-0.804h2.088v-4.392h-2.088v-0.804h3.035v5.196h2.041v0.804H-579.406z M-577.654-186.138
	c0-0.216,0.072-0.402,0.216-0.558c0.144-0.156,0.328-0.234,0.552-0.234c0.232,0,0.426,0.078,0.582,0.234
	c0.156,0.156,0.234,0.342,0.234,0.558c0,0.208-0.078,0.384-0.234,0.528c-0.156,0.144-0.35,0.216-0.582,0.216
	c-0.224,0-0.408-0.072-0.552-0.216C-577.582-185.754-577.654-185.93-577.654-186.138z"/>
<path fill="#FFFFFF" d="M-569.291-186.834h1.956v6.348c0,0.072,0.004,0.162,0.013,0.27c0.008,0.108,0.018,0.222,0.029,0.342
	s0.025,0.238,0.042,0.354c0.017,0.116,0.032,0.218,0.048,0.306h0.805v0.78h-1.607l-0.121-0.924h-0.048
	c-0.175,0.304-0.437,0.558-0.784,0.762c-0.347,0.204-0.748,0.306-1.203,0.306c-0.901,0-1.565-0.254-1.992-0.762
	c-0.428-0.508-0.641-1.298-0.641-2.37c0-0.504,0.072-0.95,0.215-1.338c0.145-0.388,0.35-0.712,0.617-0.972
	c0.268-0.26,0.588-0.458,0.963-0.594c0.375-0.136,0.795-0.204,1.258-0.204c0.167,0,0.316,0.004,0.448,0.012s0.253,0.02,0.364,0.036
	c0.112,0.016,0.219,0.038,0.318,0.066s0.209,0.058,0.328,0.09v-1.704h-1.008V-186.834z M-570.005-179.094
	c0.486,0,0.869-0.126,1.147-0.378c0.279-0.252,0.471-0.63,0.574-1.134v-2.784c-0.176-0.12-0.373-0.208-0.592-0.264
	c-0.219-0.056-0.508-0.084-0.867-0.084c-0.637,0-1.14,0.186-1.506,0.558c-0.367,0.372-0.551,0.958-0.551,1.758
	c0,0.328,0.029,0.634,0.09,0.918c0.06,0.284,0.159,0.53,0.299,0.738s0.324,0.372,0.557,0.492
	C-570.623-179.154-570.34-179.094-570.005-179.094z"/>
<path d="M-553.799-183.51c-0.185-0.064-0.383-0.118-0.595-0.162s-0.422-0.066-0.63-0.066c-0.784,0-1.368,0.185-1.752,0.554
	s-0.576,0.955-0.576,1.756c0,0.353,0.057,0.668,0.168,0.945c0.112,0.277,0.271,0.511,0.48,0.704c0.207,0.193,0.457,0.341,0.75,0.445
	c0.291,0.104,0.613,0.156,0.966,0.156c0.376,0,0.741-0.065,1.099-0.195c0.355-0.13,0.653-0.301,0.893-0.513l0.421,0.696
	c-0.112,0.096-0.252,0.196-0.421,0.3c-0.168,0.104-0.361,0.202-0.581,0.294c-0.22,0.092-0.464,0.166-0.732,0.222
	c-0.269,0.056-0.558,0.084-0.87,0.084c-0.52,0-0.978-0.074-1.373-0.222c-0.396-0.148-0.727-0.36-0.99-0.636
	c-0.265-0.276-0.465-0.608-0.601-0.996s-0.204-0.818-0.204-1.29c0-0.504,0.07-0.952,0.211-1.344c0.139-0.392,0.342-0.72,0.605-0.984
	c0.264-0.264,0.584-0.466,0.96-0.606c0.376-0.14,0.796-0.21,1.26-0.21c0.593,0,1.074,0.052,1.446,0.156s0.686,0.22,0.941,0.348
	l-0.012,0.036v1.668h-0.863V-183.51z"/>
<path d="M-551.184-181.434c0-0.968,0.252-1.734,0.756-2.298s1.225-0.846,2.16-0.846c0.504,0,0.938,0.082,1.302,0.246
	s0.666,0.386,0.906,0.666c0.239,0.28,0.418,0.612,0.534,0.996c0.115,0.384,0.174,0.796,0.174,1.236c0,0.48-0.064,0.914-0.191,1.302
	c-0.129,0.388-0.316,0.718-0.564,0.99s-0.555,0.482-0.918,0.63c-0.364,0.148-0.778,0.222-1.242,0.222
	c-0.496,0-0.928-0.082-1.296-0.246s-0.673-0.386-0.912-0.666c-0.24-0.28-0.419-0.612-0.534-0.996
	C-551.126-180.582-551.184-180.994-551.184-181.434z M-550.188-181.434c0,0.28,0.033,0.56,0.102,0.84
	c0.068,0.28,0.178,0.532,0.329,0.756c0.151,0.224,0.349,0.404,0.592,0.54c0.243,0.136,0.54,0.204,0.892,0.204
	c0.638,0,1.118-0.198,1.441-0.594c0.322-0.396,0.484-0.978,0.484-1.746c0-0.288-0.034-0.57-0.102-0.846
	c-0.068-0.276-0.18-0.526-0.335-0.75c-0.155-0.224-0.354-0.404-0.599-0.54c-0.243-0.136-0.54-0.204-0.891-0.204
	c-0.639,0-1.117,0.196-1.436,0.588C-550.028-182.794-550.188-182.21-550.188-181.434z"/>
<path d="M-540.492-186.834h1.956v6.348c0,0.072,0.004,0.162,0.013,0.27c0.008,0.108,0.018,0.222,0.029,0.342
	s0.025,0.238,0.042,0.354c0.017,0.116,0.032,0.218,0.048,0.306h0.805v0.78h-1.607l-0.121-0.924h-0.048
	c-0.175,0.304-0.437,0.558-0.784,0.762c-0.347,0.204-0.748,0.306-1.203,0.306c-0.901,0-1.565-0.254-1.992-0.762
	c-0.428-0.508-0.641-1.298-0.641-2.37c0-0.504,0.072-0.95,0.215-1.338c0.145-0.388,0.35-0.712,0.617-0.972
	c0.268-0.26,0.588-0.458,0.963-0.594c0.375-0.136,0.795-0.204,1.258-0.204c0.167,0,0.316,0.004,0.448,0.012s0.253,0.02,0.364,0.036
	c0.112,0.016,0.219,0.038,0.318,0.066s0.209,0.058,0.328,0.09v-1.704h-1.008V-186.834z M-541.206-179.094
	c0.486,0,0.869-0.126,1.147-0.378c0.279-0.252,0.471-0.63,0.574-1.134v-2.784c-0.176-0.12-0.373-0.208-0.592-0.264
	c-0.219-0.056-0.508-0.084-0.867-0.084c-0.637,0-1.14,0.186-1.506,0.558c-0.367,0.372-0.551,0.958-0.551,1.758
	c0,0.328,0.029,0.634,0.09,0.918c0.06,0.284,0.159,0.53,0.299,0.738s0.324,0.372,0.557,0.492
	C-541.824-179.154-541.541-179.094-541.206-179.094z"/>
<path d="M-531.12-179.19c-0.144,0.128-0.313,0.248-0.511,0.36c-0.195,0.112-0.41,0.208-0.642,0.288s-0.474,0.142-0.726,0.186
	s-0.506,0.066-0.762,0.066c-0.48,0-0.904-0.074-1.272-0.222s-0.677-0.36-0.924-0.636c-0.248-0.276-0.437-0.606-0.563-0.99
	c-0.129-0.384-0.193-0.816-0.193-1.296c0-0.504,0.07-0.952,0.211-1.344c0.14-0.392,0.342-0.72,0.605-0.984
	c0.264-0.264,0.584-0.466,0.961-0.606c0.375-0.14,0.795-0.21,1.26-0.21c0.336,0,0.668,0.044,0.996,0.132
	c0.327,0.088,0.617,0.254,0.869,0.498c0.252,0.244,0.446,0.58,0.582,1.008c0.137,0.428,0.184,0.982,0.145,1.662h-4.633
	c0,0.72,0.193,1.258,0.581,1.614s0.903,0.534,1.55,0.534c0.215,0,0.429-0.026,0.641-0.078c0.211-0.052,0.412-0.114,0.604-0.186
	c0.192-0.072,0.361-0.152,0.51-0.24c0.146-0.088,0.261-0.168,0.341-0.24L-531.12-179.19z M-533.646-183.786
	c-0.264,0-0.513,0.028-0.748,0.084c-0.235,0.056-0.442,0.15-0.622,0.282c-0.179,0.132-0.327,0.304-0.442,0.516
	c-0.115,0.212-0.189,0.474-0.221,0.786h3.719c-0.039-0.528-0.209-0.938-0.508-1.23S-533.16-183.786-533.646-183.786z"/>
<rect x="-583.545" y="-154.955" fill="#C92750" width="21.5" height="21.5"/>
<path fill="#FFFFFF" d="M-579.406-140.559v-0.805h2.088v-4.392h-2.088v-0.804h3.035v5.195h2.041v0.805H-579.406z M-577.654-148.264
	c0-0.215,0.072-0.401,0.216-0.558c0.144-0.155,0.328-0.233,0.552-0.233c0.232,0,0.426,0.078,0.582,0.233
	c0.156,0.156,0.234,0.343,0.234,0.558c0,0.209-0.078,0.385-0.234,0.529c-0.156,0.143-0.35,0.215-0.582,0.215
	c-0.224,0-0.408-0.072-0.552-0.215C-577.582-147.879-577.654-148.055-577.654-148.264z"/>
<path fill="#FFFFFF" d="M-569.291-148.959h1.956v6.348c0,0.072,0.004,0.162,0.013,0.27c0.008,0.109,0.018,0.223,0.029,0.343
	s0.025,0.238,0.042,0.354c0.017,0.115,0.032,0.217,0.048,0.306h0.805v0.78h-1.607l-0.121-0.924h-0.048
	c-0.175,0.303-0.437,0.557-0.784,0.762c-0.347,0.203-0.748,0.306-1.203,0.306c-0.901,0-1.565-0.254-1.992-0.763
	c-0.428-0.508-0.641-1.297-0.641-2.369c0-0.504,0.072-0.95,0.215-1.338c0.145-0.389,0.35-0.713,0.617-0.973s0.588-0.457,0.963-0.594
	c0.375-0.136,0.795-0.204,1.258-0.204c0.167,0,0.316,0.005,0.448,0.013s0.253,0.02,0.364,0.035c0.112,0.017,0.219,0.039,0.318,0.066
	s0.209,0.059,0.328,0.09v-1.704h-1.008V-148.959z M-570.005-141.219c0.486,0,0.869-0.127,1.147-0.379
	c0.279-0.252,0.471-0.629,0.574-1.133v-2.785c-0.176-0.119-0.373-0.207-0.592-0.264c-0.219-0.056-0.508-0.084-0.867-0.084
	c-0.637,0-1.14,0.186-1.506,0.559c-0.367,0.371-0.551,0.957-0.551,1.758c0,0.328,0.029,0.634,0.09,0.918
	c0.06,0.283,0.159,0.529,0.299,0.738c0.14,0.207,0.324,0.371,0.557,0.492C-570.623-141.279-570.34-141.219-570.005-141.219z"/>
<path d="M-553.799-145.635c-0.185-0.064-0.383-0.118-0.595-0.162s-0.422-0.066-0.63-0.066c-0.784,0-1.368,0.185-1.752,0.554
	s-0.576,0.954-0.576,1.757c0,0.353,0.057,0.668,0.168,0.944c0.112,0.276,0.271,0.511,0.48,0.704c0.207,0.192,0.457,0.341,0.75,0.445
	c0.291,0.104,0.613,0.156,0.966,0.156c0.376,0,0.741-0.065,1.099-0.195c0.355-0.131,0.653-0.301,0.893-0.514l0.421,0.697
	c-0.112,0.096-0.252,0.195-0.421,0.299c-0.168,0.104-0.361,0.203-0.581,0.295s-0.464,0.166-0.732,0.222s-0.558,0.084-0.87,0.084
	c-0.52,0-0.978-0.074-1.373-0.222c-0.396-0.148-0.727-0.36-0.99-0.637c-0.265-0.275-0.465-0.607-0.601-0.996
	c-0.136-0.388-0.204-0.817-0.204-1.289c0-0.504,0.07-0.953,0.211-1.345c0.139-0.392,0.342-0.72,0.605-0.983s0.584-0.467,0.96-0.606
	s0.796-0.21,1.26-0.21c0.593,0,1.074,0.053,1.446,0.156s0.686,0.22,0.941,0.348l-0.012,0.036v1.668h-0.863V-145.635z"/>
<path d="M-551.184-143.559c0-0.969,0.252-1.734,0.756-2.299c0.504-0.563,1.225-0.846,2.16-0.846c0.504,0,0.938,0.082,1.302,0.246
	s0.666,0.387,0.906,0.666c0.239,0.28,0.418,0.611,0.534,0.996c0.115,0.384,0.174,0.796,0.174,1.236c0,0.479-0.064,0.914-0.191,1.301
	c-0.129,0.389-0.316,0.719-0.564,0.99c-0.248,0.272-0.555,0.482-0.918,0.631c-0.364,0.147-0.778,0.222-1.242,0.222
	c-0.496,0-0.928-0.082-1.296-0.246s-0.673-0.386-0.912-0.666c-0.24-0.28-0.419-0.612-0.534-0.996
	C-551.126-142.707-551.184-143.119-551.184-143.559z M-550.188-143.559c0,0.279,0.033,0.56,0.102,0.84
	c0.068,0.279,0.178,0.531,0.329,0.756c0.151,0.224,0.349,0.404,0.592,0.54s0.54,0.204,0.892,0.204c0.638,0,1.118-0.198,1.441-0.594
	c0.322-0.396,0.484-0.979,0.484-1.746c0-0.289-0.034-0.57-0.102-0.847c-0.068-0.276-0.18-0.526-0.335-0.75s-0.354-0.403-0.599-0.54
	c-0.243-0.136-0.54-0.203-0.891-0.203c-0.639,0-1.117,0.195-1.436,0.588C-550.028-144.919-550.188-144.335-550.188-143.559z"/>
<path d="M-540.492-148.959h1.956v6.348c0,0.072,0.004,0.162,0.013,0.27c0.008,0.109,0.018,0.223,0.029,0.343
	s0.025,0.238,0.042,0.354c0.017,0.115,0.032,0.217,0.048,0.306h0.805v0.78h-1.607l-0.121-0.924h-0.048
	c-0.175,0.303-0.437,0.557-0.784,0.762c-0.347,0.203-0.748,0.306-1.203,0.306c-0.901,0-1.565-0.254-1.992-0.763
	c-0.428-0.508-0.641-1.297-0.641-2.369c0-0.504,0.072-0.95,0.215-1.338c0.145-0.389,0.35-0.713,0.617-0.973s0.588-0.457,0.963-0.594
	c0.375-0.136,0.795-0.204,1.258-0.204c0.167,0,0.316,0.005,0.448,0.013s0.253,0.02,0.364,0.035c0.112,0.017,0.219,0.039,0.318,0.066
	s0.209,0.059,0.328,0.09v-1.704h-1.008V-148.959z M-541.206-141.219c0.486,0,0.869-0.127,1.147-0.379
	c0.279-0.252,0.471-0.629,0.574-1.133v-2.785c-0.176-0.119-0.373-0.207-0.592-0.264c-0.219-0.056-0.508-0.084-0.867-0.084
	c-0.637,0-1.14,0.186-1.506,0.559c-0.367,0.371-0.551,0.957-0.551,1.758c0,0.328,0.029,0.634,0.09,0.918
	c0.06,0.283,0.159,0.529,0.299,0.738c0.14,0.207,0.324,0.371,0.557,0.492C-541.824-141.279-541.541-141.219-541.206-141.219z"/>
<path d="M-531.12-141.314c-0.144,0.127-0.313,0.248-0.511,0.359c-0.195,0.112-0.41,0.208-0.642,0.288s-0.474,0.142-0.726,0.187
	c-0.252,0.043-0.506,0.065-0.762,0.065c-0.48,0-0.904-0.074-1.272-0.222c-0.368-0.148-0.677-0.36-0.924-0.637
	c-0.248-0.275-0.437-0.605-0.563-0.99c-0.129-0.383-0.193-0.815-0.193-1.295c0-0.504,0.07-0.953,0.211-1.345
	c0.14-0.392,0.342-0.72,0.605-0.983s0.584-0.467,0.961-0.606c0.375-0.14,0.795-0.21,1.26-0.21c0.336,0,0.668,0.044,0.996,0.132
	c0.327,0.089,0.617,0.255,0.869,0.498c0.252,0.244,0.446,0.58,0.582,1.009c0.137,0.428,0.184,0.981,0.145,1.661h-4.633
	c0,0.72,0.193,1.259,0.581,1.614s0.903,0.534,1.55,0.534c0.215,0,0.429-0.026,0.641-0.078c0.211-0.052,0.412-0.114,0.604-0.187
	c0.192-0.072,0.361-0.151,0.51-0.24c0.146-0.088,0.261-0.168,0.341-0.239L-531.12-141.314z M-533.646-145.911
	c-0.264,0-0.513,0.028-0.748,0.084s-0.442,0.149-0.622,0.282c-0.179,0.132-0.327,0.305-0.442,0.516
	c-0.115,0.213-0.189,0.475-0.221,0.786h3.719c-0.039-0.528-0.209-0.938-0.508-1.229
	C-532.768-145.766-533.16-145.911-533.646-145.911z"/>
<path fill="#FFFFFF" d="M-579.406-108.976v-0.805h2.088v-4.392h-2.088v-0.804h3.035v5.195h2.041v0.805H-579.406z M-577.654-116.681
	c0-0.215,0.072-0.401,0.216-0.558c0.144-0.155,0.328-0.233,0.552-0.233c0.232,0,0.426,0.078,0.582,0.233
	c0.156,0.156,0.234,0.343,0.234,0.558c0,0.209-0.078,0.385-0.234,0.529c-0.156,0.143-0.35,0.215-0.582,0.215
	c-0.224,0-0.408-0.072-0.552-0.215C-577.582-116.296-577.654-116.472-577.654-116.681z"/>
<path fill="#FFFFFF" d="M-569.291-117.376h1.956v6.348c0,0.072,0.004,0.162,0.013,0.27c0.008,0.109,0.018,0.223,0.029,0.343
	s0.025,0.238,0.042,0.354c0.017,0.115,0.032,0.217,0.048,0.306h0.805v0.78h-1.607l-0.121-0.924h-0.048
	c-0.175,0.303-0.437,0.557-0.784,0.762c-0.347,0.203-0.748,0.306-1.203,0.306c-0.901,0-1.565-0.254-1.992-0.763
	c-0.428-0.508-0.641-1.297-0.641-2.369c0-0.504,0.072-0.95,0.215-1.338c0.145-0.389,0.35-0.713,0.617-0.973s0.588-0.457,0.963-0.594
	c0.375-0.136,0.795-0.204,1.258-0.204c0.167,0,0.316,0.005,0.448,0.013s0.253,0.02,0.364,0.035c0.112,0.017,0.219,0.039,0.318,0.066
	s0.209,0.059,0.328,0.09v-1.704h-1.008V-117.376z M-570.005-109.636c0.486,0,0.869-0.127,1.147-0.379
	c0.279-0.252,0.471-0.629,0.574-1.133v-2.785c-0.176-0.119-0.373-0.207-0.592-0.264c-0.219-0.056-0.508-0.084-0.867-0.084
	c-0.637,0-1.14,0.186-1.506,0.559c-0.367,0.371-0.551,0.957-0.551,1.758c0,0.328,0.029,0.634,0.09,0.918
	c0.06,0.283,0.159,0.529,0.299,0.738c0.14,0.207,0.324,0.371,0.557,0.492C-570.623-109.696-570.34-109.636-570.005-109.636z"/>
<path d="M-553.799-114.052c-0.185-0.064-0.383-0.118-0.595-0.162s-0.422-0.066-0.63-0.066c-0.784,0-1.368,0.185-1.752,0.554
	s-0.576,0.954-0.576,1.757c0,0.353,0.057,0.668,0.168,0.944c0.112,0.276,0.271,0.511,0.48,0.704c0.207,0.192,0.457,0.341,0.75,0.445
	c0.291,0.104,0.613,0.156,0.966,0.156c0.376,0,0.741-0.065,1.099-0.195c0.355-0.131,0.653-0.301,0.893-0.514l0.421,0.697
	c-0.112,0.096-0.252,0.195-0.421,0.299c-0.168,0.104-0.361,0.203-0.581,0.295s-0.464,0.166-0.732,0.222s-0.558,0.084-0.87,0.084
	c-0.52,0-0.978-0.074-1.373-0.222c-0.396-0.148-0.727-0.36-0.99-0.637c-0.265-0.275-0.465-0.607-0.601-0.996
	c-0.136-0.388-0.204-0.817-0.204-1.289c0-0.504,0.07-0.953,0.211-1.345c0.139-0.392,0.342-0.72,0.605-0.983s0.584-0.467,0.96-0.606
	s0.796-0.21,1.26-0.21c0.593,0,1.074,0.053,1.446,0.156s0.686,0.22,0.941,0.348l-0.012,0.036v1.668h-0.863V-114.052z"/>
<path d="M-551.184-111.976c0-0.969,0.252-1.734,0.756-2.299c0.504-0.563,1.225-0.846,2.16-0.846c0.504,0,0.938,0.082,1.302,0.246
	s0.666,0.387,0.906,0.666c0.239,0.28,0.418,0.611,0.534,0.996c0.115,0.384,0.174,0.796,0.174,1.236c0,0.479-0.064,0.914-0.191,1.301
	c-0.129,0.389-0.316,0.719-0.564,0.99c-0.248,0.272-0.555,0.482-0.918,0.631c-0.364,0.147-0.778,0.222-1.242,0.222
	c-0.496,0-0.928-0.082-1.296-0.246s-0.673-0.386-0.912-0.666c-0.24-0.28-0.419-0.612-0.534-0.996
	C-551.126-111.124-551.184-111.536-551.184-111.976z M-550.188-111.976c0,0.279,0.033,0.56,0.102,0.84
	c0.068,0.279,0.178,0.531,0.329,0.756c0.151,0.224,0.349,0.404,0.592,0.54s0.54,0.204,0.892,0.204c0.638,0,1.118-0.198,1.441-0.594
	c0.322-0.396,0.484-0.979,0.484-1.746c0-0.289-0.034-0.57-0.102-0.847c-0.068-0.276-0.18-0.526-0.335-0.75s-0.354-0.403-0.599-0.54
	c-0.243-0.136-0.54-0.203-0.891-0.203c-0.639,0-1.117,0.195-1.436,0.588C-550.028-113.336-550.188-112.752-550.188-111.976z"/>
<path d="M-540.492-117.376h1.956v6.348c0,0.072,0.004,0.162,0.013,0.27c0.008,0.109,0.018,0.223,0.029,0.343
	s0.025,0.238,0.042,0.354c0.017,0.115,0.032,0.217,0.048,0.306h0.805v0.78h-1.607l-0.121-0.924h-0.048
	c-0.175,0.303-0.437,0.557-0.784,0.762c-0.347,0.203-0.748,0.306-1.203,0.306c-0.901,0-1.565-0.254-1.992-0.763
	c-0.428-0.508-0.641-1.297-0.641-2.369c0-0.504,0.072-0.95,0.215-1.338c0.145-0.389,0.35-0.713,0.617-0.973s0.588-0.457,0.963-0.594
	c0.375-0.136,0.795-0.204,1.258-0.204c0.167,0,0.316,0.005,0.448,0.013s0.253,0.02,0.364,0.035c0.112,0.017,0.219,0.039,0.318,0.066
	s0.209,0.059,0.328,0.09v-1.704h-1.008V-117.376z M-541.206-109.636c0.486,0,0.869-0.127,1.147-0.379
	c0.279-0.252,0.471-0.629,0.574-1.133v-2.785c-0.176-0.119-0.373-0.207-0.592-0.264c-0.219-0.056-0.508-0.084-0.867-0.084
	c-0.637,0-1.14,0.186-1.506,0.559c-0.367,0.371-0.551,0.957-0.551,1.758c0,0.328,0.029,0.634,0.09,0.918
	c0.06,0.283,0.159,0.529,0.299,0.738c0.14,0.207,0.324,0.371,0.557,0.492C-541.824-109.696-541.541-109.636-541.206-109.636z"/>
<path d="M-531.12-109.731c-0.144,0.127-0.313,0.248-0.511,0.359c-0.195,0.112-0.41,0.208-0.642,0.288s-0.474,0.142-0.726,0.187
	c-0.252,0.043-0.506,0.065-0.762,0.065c-0.48,0-0.904-0.074-1.272-0.222c-0.368-0.148-0.677-0.36-0.924-0.637
	c-0.248-0.275-0.437-0.605-0.563-0.99c-0.129-0.383-0.193-0.815-0.193-1.295c0-0.504,0.07-0.953,0.211-1.345
	c0.14-0.392,0.342-0.72,0.605-0.983s0.584-0.467,0.961-0.606c0.375-0.14,0.795-0.21,1.26-0.21c0.336,0,0.668,0.044,0.996,0.132
	c0.327,0.089,0.617,0.255,0.869,0.498c0.252,0.244,0.446,0.58,0.582,1.009c0.137,0.428,0.184,0.981,0.145,1.661h-4.633
	c0,0.72,0.193,1.259,0.581,1.614s0.903,0.534,1.55,0.534c0.215,0,0.429-0.026,0.641-0.078c0.211-0.052,0.412-0.114,0.604-0.187
	c0.192-0.072,0.361-0.151,0.51-0.24c0.146-0.088,0.261-0.168,0.341-0.239L-531.12-109.731z M-533.646-114.328
	c-0.264,0-0.513,0.028-0.748,0.084s-0.442,0.149-0.622,0.282c-0.179,0.132-0.327,0.305-0.442,0.516
	c-0.115,0.213-0.189,0.475-0.221,0.786h3.719c-0.039-0.528-0.209-0.938-0.508-1.229
	C-532.768-114.183-533.16-114.328-533.646-114.328z"/>
<circle fill="#F04E61" cx="-572.795" cy="-75.457" r="10.708"/>
<path fill="#FFFFFF" d="M-579.406-72.059v-0.805h2.088v-4.392h-2.088v-0.804h3.035v5.195h2.041v0.805H-579.406z M-577.654-79.764
	c0-0.215,0.072-0.401,0.216-0.558c0.144-0.155,0.328-0.233,0.552-0.233c0.232,0,0.426,0.078,0.582,0.233
	c0.156,0.156,0.234,0.343,0.234,0.558c0,0.209-0.078,0.385-0.234,0.529c-0.156,0.143-0.35,0.215-0.582,0.215
	c-0.224,0-0.408-0.072-0.552-0.215C-577.582-79.379-577.654-79.555-577.654-79.764z"/>
<path fill="#FFFFFF" d="M-569.291-80.459h1.956v6.348c0,0.072,0.004,0.162,0.013,0.27c0.008,0.109,0.018,0.223,0.029,0.343
	s0.025,0.238,0.042,0.354c0.017,0.115,0.032,0.217,0.048,0.306h0.805v0.78h-1.607l-0.121-0.924h-0.048
	c-0.175,0.303-0.437,0.557-0.784,0.762c-0.347,0.203-0.748,0.306-1.203,0.306c-0.901,0-1.565-0.254-1.992-0.763
	c-0.428-0.508-0.641-1.297-0.641-2.369c0-0.504,0.072-0.95,0.215-1.338c0.145-0.389,0.35-0.713,0.617-0.973s0.588-0.457,0.963-0.594
	c0.375-0.136,0.795-0.204,1.258-0.204c0.167,0,0.316,0.005,0.448,0.013s0.253,0.02,0.364,0.035c0.112,0.017,0.219,0.039,0.318,0.066
	s0.209,0.059,0.328,0.09v-1.704h-1.008V-80.459z M-570.005-72.719c0.486,0,0.869-0.127,1.147-0.379
	c0.279-0.252,0.471-0.629,0.574-1.133v-2.785c-0.176-0.119-0.373-0.207-0.592-0.264c-0.219-0.056-0.508-0.084-0.867-0.084
	c-0.637,0-1.14,0.186-1.506,0.559c-0.367,0.371-0.551,0.957-0.551,1.758c0,0.328,0.029,0.634,0.09,0.918
	c0.06,0.283,0.159,0.529,0.299,0.738c0.14,0.207,0.324,0.371,0.557,0.492C-570.623-72.779-570.34-72.719-570.005-72.719z"/>
<g>
	<path fill="#F04E61" d="M-553.799-77.135c-0.185-0.064-0.383-0.118-0.595-0.162s-0.422-0.066-0.63-0.066
		c-0.784,0-1.368,0.185-1.752,0.554s-0.576,0.954-0.576,1.757c0,0.353,0.057,0.668,0.168,0.944c0.112,0.276,0.271,0.511,0.48,0.704
		c0.207,0.192,0.457,0.341,0.75,0.445c0.291,0.104,0.613,0.156,0.966,0.156c0.376,0,0.741-0.065,1.099-0.195
		c0.355-0.131,0.653-0.301,0.893-0.514l0.421,0.697c-0.112,0.096-0.252,0.195-0.421,0.299c-0.168,0.104-0.361,0.203-0.581,0.295
		s-0.464,0.166-0.732,0.222s-0.558,0.084-0.87,0.084c-0.52,0-0.978-0.074-1.373-0.222c-0.396-0.148-0.727-0.36-0.99-0.637
		c-0.265-0.275-0.465-0.607-0.601-0.996c-0.136-0.388-0.204-0.817-0.204-1.289c0-0.504,0.07-0.953,0.211-1.345
		c0.139-0.392,0.342-0.72,0.605-0.983s0.584-0.467,0.96-0.606s0.796-0.21,1.26-0.21c0.593,0,1.074,0.053,1.446,0.156
		s0.686,0.22,0.941,0.348l-0.012,0.036v1.668h-0.863V-77.135z"/>
	<path fill="#F04E61" d="M-551.184-75.059c0-0.969,0.252-1.734,0.756-2.299c0.504-0.563,1.225-0.846,2.16-0.846
		c0.504,0,0.938,0.082,1.302,0.246s0.666,0.387,0.906,0.666c0.239,0.28,0.418,0.611,0.534,0.996
		c0.115,0.384,0.174,0.796,0.174,1.236c0,0.479-0.064,0.914-0.191,1.301c-0.129,0.389-0.316,0.719-0.564,0.99
		c-0.248,0.272-0.555,0.482-0.918,0.631c-0.364,0.147-0.778,0.222-1.242,0.222c-0.496,0-0.928-0.082-1.296-0.246
		s-0.673-0.386-0.912-0.666c-0.24-0.28-0.419-0.612-0.534-0.996C-551.126-74.207-551.184-74.619-551.184-75.059z M-550.188-75.059
		c0,0.279,0.033,0.56,0.102,0.84c0.068,0.279,0.178,0.531,0.329,0.756c0.151,0.224,0.349,0.404,0.592,0.54s0.54,0.204,0.892,0.204
		c0.638,0,1.118-0.198,1.441-0.594c0.322-0.396,0.484-0.979,0.484-1.746c0-0.289-0.034-0.57-0.102-0.847
		c-0.068-0.276-0.18-0.526-0.335-0.75s-0.354-0.403-0.599-0.54c-0.243-0.136-0.54-0.203-0.891-0.203
		c-0.639,0-1.117,0.195-1.436,0.588C-550.028-76.419-550.188-75.835-550.188-75.059z"/>
	<path fill="#F04E61" d="M-540.492-80.459h1.956v6.348c0,0.072,0.004,0.162,0.013,0.27c0.008,0.109,0.018,0.223,0.029,0.343
		s0.025,0.238,0.042,0.354c0.017,0.115,0.032,0.217,0.048,0.306h0.805v0.78h-1.607l-0.121-0.924h-0.048
		c-0.175,0.303-0.437,0.557-0.784,0.762c-0.347,0.203-0.748,0.306-1.203,0.306c-0.901,0-1.565-0.254-1.992-0.763
		c-0.428-0.508-0.641-1.297-0.641-2.369c0-0.504,0.072-0.95,0.215-1.338c0.145-0.389,0.35-0.713,0.617-0.973
		s0.588-0.457,0.963-0.594c0.375-0.136,0.795-0.204,1.258-0.204c0.167,0,0.316,0.005,0.448,0.013s0.253,0.02,0.364,0.035
		c0.112,0.017,0.219,0.039,0.318,0.066s0.209,0.059,0.328,0.09v-1.704h-1.008V-80.459z M-541.206-72.719
		c0.486,0,0.869-0.127,1.147-0.379c0.279-0.252,0.471-0.629,0.574-1.133v-2.785c-0.176-0.119-0.373-0.207-0.592-0.264
		c-0.219-0.056-0.508-0.084-0.867-0.084c-0.637,0-1.14,0.186-1.506,0.559c-0.367,0.371-0.551,0.957-0.551,1.758
		c0,0.328,0.029,0.634,0.09,0.918c0.06,0.283,0.159,0.529,0.299,0.738c0.14,0.207,0.324,0.371,0.557,0.492
		C-541.824-72.779-541.541-72.719-541.206-72.719z"/>
	<path fill="#F04E61" d="M-531.12-72.814c-0.144,0.127-0.313,0.248-0.511,0.359c-0.195,0.112-0.41,0.208-0.642,0.288
		s-0.474,0.142-0.726,0.187c-0.252,0.043-0.506,0.065-0.762,0.065c-0.48,0-0.904-0.074-1.272-0.222
		c-0.368-0.148-0.677-0.36-0.924-0.637c-0.248-0.275-0.437-0.605-0.563-0.99c-0.129-0.383-0.193-0.815-0.193-1.295
		c0-0.504,0.07-0.953,0.211-1.345c0.14-0.392,0.342-0.72,0.605-0.983s0.584-0.467,0.961-0.606c0.375-0.14,0.795-0.21,1.26-0.21
		c0.336,0,0.668,0.044,0.996,0.132c0.327,0.089,0.617,0.255,0.869,0.498c0.252,0.244,0.446,0.58,0.582,1.009
		c0.137,0.428,0.184,0.981,0.145,1.661h-4.633c0,0.72,0.193,1.259,0.581,1.614s0.903,0.534,1.55,0.534
		c0.215,0,0.429-0.026,0.641-0.078c0.211-0.052,0.412-0.114,0.604-0.187c0.192-0.072,0.361-0.151,0.51-0.24
		c0.146-0.088,0.261-0.168,0.341-0.239L-531.12-72.814z M-533.646-77.411c-0.264,0-0.513,0.028-0.748,0.084
		s-0.442,0.149-0.622,0.282c-0.179,0.132-0.327,0.305-0.442,0.516c-0.115,0.213-0.189,0.475-0.221,0.786h3.719
		c-0.039-0.528-0.209-0.938-0.508-1.229C-532.768-77.266-533.16-77.411-533.646-77.411z"/>
</g>
<circle fill="#F04E61" cx="-514.003" cy="8.46" r="10.708"/>
<circle fill="#F04E61" cx="-400.337" cy="8.46" r="10.708"/>
<circle fill="#E8BA5D" cx="-375.003" cy="8.46" r="10.708"/>
<path fill="#FFFFFF" d="M-520.614,11.858v-0.805h2.088V6.662h-2.088V5.858h3.035v5.195h2.041v0.805H-520.614z M-518.862,4.153
	c0-0.215,0.072-0.401,0.216-0.558c0.144-0.155,0.328-0.233,0.552-0.233c0.232,0,0.426,0.078,0.582,0.233
	c0.156,0.156,0.234,0.343,0.234,0.558c0,0.209-0.078,0.385-0.234,0.529c-0.156,0.143-0.35,0.215-0.582,0.215
	c-0.224,0-0.408-0.072-0.552-0.215C-518.79,4.538-518.862,4.362-518.862,4.153z"/>
<path fill="#FFFFFF" d="M-510.499,3.458h1.956v6.348c0,0.072,0.004,0.162,0.013,0.27c0.008,0.109,0.018,0.223,0.029,0.343
	s0.025,0.238,0.042,0.354c0.017,0.115,0.032,0.217,0.048,0.306h0.805v0.78h-1.607l-0.121-0.924h-0.048
	c-0.175,0.303-0.437,0.557-0.784,0.762c-0.347,0.203-0.748,0.306-1.203,0.306c-0.901,0-1.565-0.254-1.992-0.763
	c-0.428-0.508-0.641-1.297-0.641-2.369c0-0.504,0.072-0.95,0.215-1.338c0.145-0.389,0.35-0.713,0.617-0.973s0.588-0.457,0.963-0.594
	c0.375-0.136,0.795-0.204,1.258-0.204c0.167,0,0.316,0.005,0.448,0.013s0.253,0.02,0.364,0.035c0.112,0.017,0.219,0.039,0.318,0.066
	s0.209,0.059,0.328,0.09V4.262h-1.008V3.458z M-511.213,11.198c0.486,0,0.869-0.127,1.147-0.379
	c0.279-0.252,0.471-0.629,0.574-1.133V6.901c-0.176-0.119-0.373-0.207-0.592-0.264c-0.219-0.056-0.508-0.084-0.867-0.084
	c-0.637,0-1.14,0.186-1.506,0.559c-0.367,0.371-0.551,0.957-0.551,1.758c0,0.328,0.029,0.634,0.09,0.918
	c0.06,0.283,0.159,0.529,0.299,0.738c0.14,0.207,0.324,0.371,0.557,0.492C-511.831,11.138-511.548,11.198-511.213,11.198z"/>
<g>
	<path fill="#F04E61" d="M-497.007,6.782c-0.185-0.064-0.383-0.118-0.595-0.162s-0.422-0.066-0.63-0.066
		c-0.784,0-1.368,0.185-1.752,0.554s-0.576,0.954-0.576,1.757c0,0.353,0.057,0.668,0.168,0.944c0.112,0.276,0.271,0.511,0.48,0.704
		c0.207,0.192,0.457,0.341,0.75,0.445c0.291,0.104,0.613,0.156,0.966,0.156c0.376,0,0.741-0.065,1.099-0.195
		c0.355-0.131,0.653-0.301,0.893-0.514l0.421,0.697c-0.112,0.096-0.252,0.195-0.421,0.299c-0.168,0.104-0.361,0.203-0.581,0.295
		s-0.464,0.166-0.732,0.222s-0.558,0.084-0.87,0.084c-0.52,0-0.978-0.074-1.373-0.222c-0.396-0.148-0.727-0.36-0.99-0.637
		c-0.265-0.275-0.465-0.607-0.601-0.996c-0.136-0.388-0.204-0.817-0.204-1.289c0-0.504,0.07-0.953,0.211-1.345
		c0.139-0.392,0.342-0.72,0.605-0.983s0.584-0.467,0.96-0.606s0.796-0.21,1.26-0.21c0.593,0,1.074,0.053,1.446,0.156
		s0.686,0.22,0.941,0.348l-0.012,0.036v1.668h-0.863V6.782z"/>
	<path fill="#F04E61" d="M-494.392,8.858c0-0.969,0.252-1.734,0.756-2.299c0.504-0.563,1.225-0.846,2.16-0.846
		c0.504,0,0.938,0.082,1.302,0.246s0.666,0.387,0.906,0.666c0.239,0.28,0.418,0.611,0.534,0.996
		c0.115,0.384,0.174,0.796,0.174,1.236c0,0.479-0.064,0.914-0.191,1.301c-0.129,0.389-0.316,0.719-0.564,0.99
		c-0.248,0.272-0.555,0.482-0.918,0.631c-0.364,0.147-0.778,0.222-1.242,0.222c-0.496,0-0.928-0.082-1.296-0.246
		s-0.673-0.386-0.912-0.666c-0.24-0.28-0.419-0.612-0.534-0.996C-494.334,9.71-494.392,9.298-494.392,8.858z M-493.396,8.858
		c0,0.279,0.033,0.56,0.102,0.84c0.068,0.279,0.178,0.531,0.329,0.756c0.151,0.224,0.349,0.404,0.592,0.54s0.54,0.204,0.892,0.204
		c0.638,0,1.118-0.198,1.441-0.594c0.322-0.396,0.484-0.979,0.484-1.746c0-0.289-0.034-0.57-0.102-0.847
		c-0.068-0.276-0.18-0.526-0.335-0.75s-0.354-0.403-0.599-0.54c-0.243-0.136-0.54-0.203-0.891-0.203
		c-0.639,0-1.117,0.195-1.436,0.588C-493.236,7.498-493.396,8.082-493.396,8.858z"/>
	<path fill="#F04E61" d="M-483.7,3.458h1.956v6.348c0,0.072,0.004,0.162,0.013,0.27c0.008,0.109,0.018,0.223,0.029,0.343
		s0.025,0.238,0.042,0.354c0.017,0.115,0.032,0.217,0.048,0.306h0.805v0.78h-1.607l-0.121-0.924h-0.048
		c-0.175,0.303-0.437,0.557-0.784,0.762c-0.347,0.203-0.748,0.306-1.203,0.306c-0.901,0-1.565-0.254-1.992-0.763
		c-0.428-0.508-0.641-1.297-0.641-2.369c0-0.504,0.072-0.95,0.215-1.338c0.145-0.389,0.35-0.713,0.617-0.973
		s0.588-0.457,0.963-0.594c0.375-0.136,0.795-0.204,1.258-0.204c0.167,0,0.316,0.005,0.448,0.013s0.253,0.02,0.364,0.035
		c0.112,0.017,0.219,0.039,0.318,0.066s0.209,0.059,0.328,0.09V4.262h-1.008V3.458z M-484.414,11.198
		c0.486,0,0.869-0.127,1.147-0.379c0.279-0.252,0.471-0.629,0.574-1.133V6.901c-0.176-0.119-0.373-0.207-0.592-0.264
		c-0.219-0.056-0.508-0.084-0.867-0.084c-0.637,0-1.14,0.186-1.506,0.559c-0.367,0.371-0.551,0.957-0.551,1.758
		c0,0.328,0.029,0.634,0.09,0.918c0.06,0.283,0.159,0.529,0.299,0.738c0.14,0.207,0.324,0.371,0.557,0.492
		C-485.032,11.138-484.749,11.198-484.414,11.198z"/>
	<path fill="#F04E61" d="M-474.328,11.103c-0.144,0.127-0.313,0.248-0.511,0.359c-0.195,0.112-0.41,0.208-0.642,0.288
		s-0.474,0.142-0.726,0.187c-0.252,0.043-0.506,0.065-0.762,0.065c-0.48,0-0.904-0.074-1.272-0.222
		c-0.368-0.148-0.677-0.36-0.924-0.637c-0.248-0.275-0.437-0.605-0.563-0.99c-0.129-0.383-0.193-0.815-0.193-1.295
		c0-0.504,0.07-0.953,0.211-1.345c0.14-0.392,0.342-0.72,0.605-0.983s0.584-0.467,0.961-0.606c0.375-0.14,0.795-0.21,1.26-0.21
		c0.336,0,0.668,0.044,0.996,0.132c0.327,0.089,0.617,0.255,0.869,0.498c0.252,0.244,0.446,0.58,0.582,1.009
		c0.137,0.428,0.184,0.981,0.145,1.661h-4.633c0,0.72,0.193,1.259,0.581,1.614s0.903,0.534,1.55,0.534
		c0.215,0,0.429-0.026,0.641-0.078c0.211-0.052,0.412-0.114,0.604-0.187c0.192-0.072,0.361-0.151,0.51-0.24
		c0.146-0.088,0.261-0.168,0.341-0.239L-474.328,11.103z M-476.854,6.506c-0.264,0-0.513,0.028-0.748,0.084
		s-0.442,0.149-0.622,0.282c-0.179,0.132-0.327,0.305-0.442,0.516c-0.115,0.213-0.189,0.475-0.221,0.786h3.719
		c-0.039-0.528-0.209-0.938-0.508-1.229C-475.976,6.651-476.368,6.506-476.854,6.506z"/>
</g>
<rect x="-495.807" y="14.98" fill="none" width="43.056" height="5.875"/>
<text transform="matrix(1 0 0 1 -495.8066 17.9727)" fill="#2D2111" font-family="'Oxygen-Light'" font-size="4">un code a votre image</text>
<rect x="-407.238" y="47.5" fill="none" width="28.238" height="8.02"/>
<text transform="matrix(1 0 0 1 -407.2383 53.4844)" font-family="'Oxygen-Light'" font-size="8">Oxygen</text>
<rect x="-407.238" y="33.73" fill="none" width="44.988" height="11.52"/>
<text transform="matrix(1 0 0 1 -407.2383 41.8994)" font-family="'Oxygen-Bold'" font-size="11">Oxygen</text>
<g>
	<rect x="-452.221" y="-145.791" fill="none" width="82.416" height="15.5"/>
	<text transform="matrix(1 0 0 1 -452.2207 -137.3906)" font-family="'PTMono-Regular'" font-size="12">{id} code</text>
	<rect x="-452.221" y="-145.791" fill="none" width="82.416" height="15.5"/>
	<text transform="matrix(1 0 0 1 -452.2207 -137.3906)" font-family="'PTMono-Regular'" font-size="12">{id} code</text>
	<rect x="-452.221" y="-145.791" fill="none" width="82.416" height="15.5"/>
	<text transform="matrix(1 0 0 1 -452.2207 -137.3906)" font-family="'PTMono-Regular'" font-size="12">{id} code</text>
	<rect x="-452.221" y="-145.791" fill="none" width="82.416" height="15.5"/>
	<text transform="matrix(1 0 0 1 -452.2207 -137.3906)" font-family="'PTMono-Regular'" font-size="12">{id} code</text>
</g>
<g>
	<rect x="-453.824" y="-123.291" fill="none" width="82.416" height="15.5"/>
	<text transform="matrix(1 0 0 1 -453.8242 -114.8906)" font-family="'PTMono-Regular'" font-size="12">[id] code</text>
	<rect x="-453.824" y="-123.291" fill="none" width="82.416" height="15.5"/>
	<text transform="matrix(1 0 0 1 -453.8242 -114.8906)" font-family="'PTMono-Regular'" font-size="12">[id] code</text>
	<rect x="-453.824" y="-123.291" fill="none" width="82.416" height="15.5"/>
	<text transform="matrix(1 0 0 1 -453.8242 -114.8906)" font-family="'PTMono-Regular'" font-size="12">[id] code</text>
	<rect x="-453.824" y="-123.291" fill="none" width="82.416" height="15.5"/>
	<text transform="matrix(1 0 0 1 -453.8242 -114.8906)" font-family="'PTMono-Regular'" font-size="12">[id] code</text>
</g>
<path fill="#F04E61" d="M128.257,87.021c0,24.502-19.86,44.362-44.36,44.362c-24.503,0-44.362-19.86-44.362-44.362
	c0-24.501,19.859-44.361,44.362-44.361C108.396,42.66,128.257,62.521,128.257,87.021z"/>
<path fill="#FFFFFF" d="M56.506,101.102v-3.334h8.65V79.573h-8.65v-3.33h12.573v21.524h8.457v3.334H56.506z M63.765,69.18
	c0-0.891,0.299-1.662,0.894-2.31c0.594-0.644,1.359-0.968,2.285-0.968c0.964,0,1.765,0.324,2.411,0.968
	c0.648,0.647,0.972,1.419,0.972,2.31c0,0.865-0.323,1.595-0.972,2.193c-0.646,0.59-1.447,0.89-2.411,0.89
	c-0.926,0-1.691-0.3-2.285-0.89C64.063,70.774,63.765,70.045,63.765,69.18z"/>
<path fill="#FFFFFF" d="M98.411,66.3h8.104v26.297c0,0.299,0.016,0.672,0.052,1.116c0.032,0.453,0.073,0.923,0.122,1.421
	c0.048,0.497,0.105,0.986,0.175,1.469c0.068,0.478,0.132,0.897,0.196,1.266h3.336v3.233h-6.66l-0.503-3.828h-0.196
	c-0.725,1.255-1.81,2.306-3.25,3.156c-1.437,0.841-3.099,1.266-4.984,1.266c-3.734,0-6.484-1.053-8.254-3.159
	c-1.771-2.104-2.652-5.373-2.652-9.815c0-2.087,0.299-3.937,0.89-5.543c0.598-1.609,1.447-2.952,2.558-4.028
	c1.106-1.077,2.435-1.895,3.988-2.461c1.554-0.562,3.293-0.846,5.211-0.846c0.691,0,1.312,0.021,1.857,0.053
	c0.545,0.032,1.047,0.082,1.508,0.146c0.466,0.069,0.907,0.162,1.319,0.275c0.413,0.114,0.865,0.242,1.359,0.372v-7.06h-4.176V66.3z
	 M95.454,98.366c2.016,0,3.602-0.526,4.753-1.57c1.159-1.044,1.951-2.605,2.38-4.693V80.565c-0.729-0.495-1.545-0.858-2.451-1.093
	c-0.906-0.23-2.104-0.348-3.593-0.348c-2.638,0-4.722,0.768-6.238,2.313c-1.521,1.538-2.282,3.965-2.282,7.282
	c0,1.36,0.122,2.626,0.372,3.803c0.246,1.174,0.66,2.193,1.238,3.059c0.578,0.857,1.343,1.538,2.306,2.039
	C92.893,98.115,94.067,98.366,95.454,98.366z"/>
<g>
	<path fill="#F04E61" d="M154.308,80.07c-0.766-0.266-1.586-0.489-2.463-0.671c-0.879-0.182-1.749-0.274-2.61-0.274
		c-3.248,0-5.668,0.765-7.259,2.293c-1.589,1.529-2.387,3.953-2.387,7.278c0,1.46,0.235,2.768,0.696,3.912
		c0.465,1.146,1.125,2.116,1.99,2.918c0.857,0.796,1.894,1.411,3.107,1.844c1.205,0.43,2.541,0.647,4.001,0.647
		c1.558,0,3.071-0.271,4.552-0.809c1.473-0.542,2.707-1.246,3.698-2.128l1.743,2.889c-0.465,0.396-1.043,0.809-1.743,1.237
		c-0.696,0.434-1.497,0.842-2.407,1.223c-0.91,0.38-1.922,0.688-3.035,0.918c-1.111,0.23-2.31,0.348-3.604,0.348
		c-2.153,0-4.051-0.308-5.688-0.918c-1.644-0.615-3.011-1.493-4.104-2.638c-1.096-1.142-1.925-2.517-2.488-4.127
		c-0.562-1.605-0.846-3.387-0.846-5.34c0-2.089,0.292-3.949,0.875-5.571c0.574-1.623,1.416-2.981,2.507-4.074
		c1.094-1.093,2.421-1.934,3.978-2.513c1.558-0.579,3.297-0.869,5.22-0.869c2.455,0,4.45,0.218,5.991,0.647
		c1.541,0.428,2.841,0.91,3.901,1.44l-0.05,0.148v6.911h-3.576V80.07z"/>
	<path fill="#F04E61" d="M165.143,88.673c0-4.015,1.043-7.187,3.132-9.523c2.087-2.335,5.073-3.504,8.948-3.504
		c2.088,0,3.885,0.34,5.393,1.019c1.509,0.68,2.76,1.603,3.755,2.76c0.991,1.161,1.731,2.532,2.212,4.126
		c0.479,1.591,0.721,3.299,0.721,5.123c0,1.986-0.267,3.786-0.792,5.389c-0.534,1.61-1.311,2.978-2.34,4.102
		c-1.026,1.129-2.297,1.999-3.803,2.614c-1.509,0.61-3.223,0.918-5.146,0.918c-2.055,0-3.844-0.34-5.368-1.019
		c-1.525-0.681-2.788-1.599-3.779-2.761c-0.995-1.16-1.735-2.536-2.212-4.126C165.381,92.2,165.143,90.493,165.143,88.673z
		 M169.27,88.673c0,1.157,0.137,2.318,0.421,3.479c0.281,1.156,0.735,2.2,1.362,3.131c0.627,0.927,1.444,1.675,2.451,2.237
		c1.009,0.562,2.238,0.846,3.695,0.846c2.642,0,4.631-0.821,5.97-2.46c1.336-1.643,2.008-4.054,2.008-7.233
		c0-1.198-0.142-2.363-0.422-3.509c-0.281-1.145-0.743-2.18-1.387-3.107c-0.644-0.926-1.47-1.671-2.48-2.236
		c-1.007-0.562-2.237-0.841-3.688-0.841c-2.646,0-4.629,0.809-5.948,2.435C169.929,83.037,169.27,85.456,169.27,88.673z"/>
	<path fill="#F04E61" d="M209.435,66.3h8.104v26.297c0,0.299,0.016,0.672,0.053,1.116c0.032,0.453,0.072,0.923,0.122,1.421
		c0.048,0.497,0.105,0.986,0.174,1.469c0.068,0.478,0.133,0.897,0.197,1.266h3.334v3.233h-6.659l-0.502-3.828h-0.198
		c-0.724,1.255-1.809,2.306-3.249,3.156c-1.436,0.841-3.098,1.266-4.983,1.266c-3.734,0-6.485-1.053-8.254-3.159
		c-1.771-2.104-2.653-5.373-2.653-9.815c0-2.087,0.299-3.937,0.891-5.543c0.598-1.609,1.447-2.952,2.557-4.028
		c1.107-1.077,2.435-1.895,3.988-2.461c1.554-0.562,3.293-0.846,5.212-0.846c0.691,0,1.311,0.021,1.856,0.053
		s1.047,0.082,1.509,0.146c0.465,0.069,0.907,0.162,1.318,0.275c0.413,0.114,0.866,0.242,1.36,0.372v-7.06h-4.176V66.3z
		 M206.477,98.366c2.016,0,3.602-0.526,4.754-1.57c1.158-1.044,1.95-2.605,2.38-4.693V80.565c-0.729-0.495-1.546-0.858-2.451-1.093
		c-0.906-0.23-2.105-0.348-3.593-0.348c-2.639,0-4.722,0.768-6.238,2.313c-1.522,1.538-2.283,3.965-2.283,7.282
		c0,1.36,0.122,2.626,0.373,3.803c0.246,1.174,0.659,2.193,1.238,3.059c0.578,0.857,1.343,1.538,2.306,2.039
		C203.916,98.115,205.09,98.366,206.477,98.366z"/>
	<path fill="#F04E61" d="M248.261,97.97c-0.595,0.526-1.297,1.027-2.115,1.489c-0.809,0.465-1.698,0.86-2.657,1.193
		c-0.96,0.331-1.962,0.586-3.007,0.772c-1.044,0.178-2.096,0.271-3.156,0.271c-1.989,0-3.745-0.308-5.27-0.918
		c-1.526-0.615-2.806-1.493-3.827-2.638c-1.029-1.142-1.811-2.509-2.336-4.103c-0.534-1.586-0.801-3.378-0.801-5.364
		c0-2.089,0.291-3.949,0.874-5.571c0.578-1.623,1.416-2.981,2.509-4.074c1.091-1.093,2.419-1.934,3.981-2.513
		c1.552-0.579,3.292-0.869,5.218-0.869c1.392,0,2.768,0.182,4.127,0.546c1.355,0.367,2.557,1.056,3.601,2.063
		c1.044,1.011,1.849,2.403,2.411,4.179c0.567,1.771,0.761,4.065,0.599,6.882h-19.192c0,2.981,0.801,5.216,2.407,6.688
		c1.605,1.472,3.742,2.212,6.42,2.212c0.89,0,1.775-0.109,2.655-0.323c0.873-0.215,1.706-0.473,2.499-0.772
		c0.798-0.3,1.498-0.628,2.112-0.995c0.606-0.365,1.081-0.696,1.412-0.991L248.261,97.97z M237.795,78.926
		c-1.092,0-2.124,0.118-3.098,0.349c-0.976,0.23-1.833,0.618-2.578,1.169c-0.74,0.547-1.354,1.263-1.833,2.136
		c-0.477,0.883-0.785,1.967-0.914,3.257h15.406c-0.162-2.188-0.865-3.888-2.104-5.093C241.437,79.529,239.811,78.926,237.795,78.926
		z"/>
</g>
</svg>
